<svg width="56" height="56" viewBox="0 0 56 56" fill="none" xmlns="http://www.w3.org/2000/svg">
<path d="M44.1699 46.6654C40.2375 46.6654 36.2055 45.6807 32.0739 43.7114C27.9424 41.742 24.104 38.977 20.5589 35.4164C17.0138 31.8557 14.2566 28.0174 12.2873 23.9014C10.3179 19.7854 9.33325 15.7611 9.33325 11.8287C9.33325 11.1163 9.56659 10.5228 10.0333 10.0484C10.4999 9.57392 11.0833 9.33514 11.7833 9.33203H17.5536C18.1883 9.33203 18.742 9.53192 19.2149 9.9317C19.6878 10.3315 20.0075 10.844 20.1739 11.4694L21.3313 17.032C21.4401 17.6854 21.4207 18.2555 21.2729 18.7424C21.1251 19.2293 20.8661 19.6283 20.4959 19.9394L15.3766 24.7134C16.3348 26.4509 17.3934 28.0656 18.5523 29.5574C19.7111 31.0491 20.9478 32.4624 22.2623 33.797C23.6156 35.1504 25.0731 36.4104 26.6349 37.577C28.1967 38.7421 29.9109 39.8419 31.7776 40.8764L36.7686 35.7967C37.1481 35.3876 37.5751 35.1177 38.0496 34.987C38.5225 34.8579 39.0467 34.8323 39.6223 34.91L44.5293 35.9134C45.1639 36.0689 45.6788 36.3886 46.0739 36.8724C46.469 37.3561 46.6666 37.9099 46.6666 38.5337V44.2154C46.6666 44.9154 46.4286 45.4987 45.9526 45.9654C45.4766 46.432 44.8808 46.6654 44.1699 46.6654ZM14.2799 22.5247L18.7599 18.4064C18.9077 18.2866 19.0041 18.1217 19.0493 17.9117C19.0959 17.7017 19.0881 17.5073 19.0259 17.3284L17.9923 12.3817C17.9316 12.1437 17.8266 11.9648 17.6773 11.845C17.5279 11.7253 17.3343 11.6654 17.0963 11.6654H12.3083C12.1294 11.6654 11.98 11.7253 11.8603 11.845C11.7405 11.9648 11.6806 12.1141 11.6806 12.293C11.7257 13.8875 11.9754 15.5519 12.4296 17.2864C12.8838 19.0208 13.499 20.7669 14.2799 22.5247ZM33.9989 41.9707C35.5763 42.7516 37.2563 43.3295 39.0389 43.7044C40.8247 44.0777 42.3803 44.2776 43.7056 44.304C43.8845 44.304 44.0338 44.2441 44.1536 44.1244C44.2734 44.0046 44.3333 43.856 44.3333 43.6787V38.9934C44.3333 38.7554 44.2734 38.5609 44.1536 38.41C44.0338 38.2607 43.8549 38.1565 43.6169 38.0974L39.3003 37.213C39.1198 37.1524 38.9619 37.1446 38.8266 37.1897C38.6928 37.2364 38.5513 37.3336 38.4019 37.4814L33.9989 41.9707Z" fill="white"/>
</svg>
