<svg width="57" height="56" viewBox="0 0 57 56" fill="none" xmlns="http://www.w3.org/2000/svg">
<path d="M12.1667 11.668H42.5001C44.3566 11.668 46.1371 12.4055 47.4498 13.7182C48.7626 15.031 49.5001 16.8115 49.5001 18.668V39.668C49.5001 41.5245 48.7626 43.305 47.4498 44.6177C46.1371 45.9305 44.3566 46.668 42.5001 46.668H12.1667C10.3102 46.668 8.52976 45.9305 7.217 44.6177C5.90425 43.305 5.16675 41.5245 5.16675 39.668V18.668C5.16675 16.8115 5.90425 15.031 7.217 13.7182C8.52976 12.4055 10.3102 11.668 12.1667 11.668ZM12.1667 14.0013C11.0001 14.0013 9.97341 14.398 9.18008 15.098L27.3334 26.8346L45.4867 15.098C44.6934 14.398 43.6667 14.0013 42.5001 14.0013H12.1667ZM27.3334 29.658L7.80341 16.988C7.61675 17.5013 7.50008 18.0846 7.50008 18.668V39.668C7.50008 40.9056 7.99175 42.0926 8.86692 42.9678C9.74209 43.843 10.9291 44.3346 12.1667 44.3346H42.5001C43.7378 44.3346 44.9247 43.843 45.7999 42.9678C46.6751 42.0926 47.1667 40.9056 47.1667 39.668V18.668C47.1667 18.0846 47.0501 17.5013 46.8634 16.988L27.3334 29.658Z" fill="white"/>
</svg>
