<svg width="56" height="56" viewBox="0 0 56 56" fill="none" xmlns="http://www.w3.org/2000/svg">
<path d="M29.3066 48.58C28.9258 48.8535 28.4688 49.0006 28 49.0006C27.5311 49.0006 27.0741 48.8535 26.6933 48.58C15.4256 40.5487 3.46731 24.0287 15.5563 12.0913C18.8751 8.82665 23.3446 6.99796 28 7C32.6666 7 37.1443 8.83167 40.4436 12.089C52.5326 24.0263 40.5743 40.544 29.3066 48.58Z" stroke="white" stroke-width="1.5" stroke-linecap="round" stroke-linejoin="round"/>
<path d="M27.9999 28.0013C29.2376 28.0013 30.4246 27.5096 31.2997 26.6345C32.1749 25.7593 32.6666 24.5723 32.6666 23.3346C32.6666 22.097 32.1749 20.91 31.2997 20.0348C30.4246 19.1596 29.2376 18.668 27.9999 18.668C26.7622 18.668 25.5753 19.1596 24.7001 20.0348C23.8249 20.91 23.3333 22.097 23.3333 23.3346C23.3333 24.5723 23.8249 25.7593 24.7001 26.6345C25.5753 27.5096 26.7622 28.0013 27.9999 28.0013Z" stroke="white" stroke-width="1.5" stroke-linecap="round" stroke-linejoin="round"/>
</svg>
