<svg width="64" height="64" viewBox="0 0 64 64" fill="none" xmlns="http://www.w3.org/2000/svg">
<circle cx="32" cy="32" r="32" fill="#DCFCE7"/>
<path d="M18.5315 39.875H17.375C17.0766 39.875 16.7905 39.7565 16.5795 39.5455C16.3685 39.3345 16.25 39.0484 16.25 38.75V21.875C16.25 21.5766 16.3685 21.2905 16.5795 21.0795C16.7905 20.8685 17.0766 20.75 17.375 20.75H37.625C37.9234 20.75 38.2095 20.8685 38.4205 21.0795C38.6315 21.2905 38.75 21.5766 38.75 21.875V25.25H44.5348C44.8034 25.2501 45.0632 25.3463 45.267 25.5213C45.4709 25.6963 45.6054 25.9385 45.6463 26.204L47.5498 38.579C47.5744 38.7393 47.5641 38.903 47.5196 39.0589C47.4751 39.2148 47.3973 39.3593 47.2918 39.4824C47.1862 39.6055 47.0553 39.7043 46.908 39.7721C46.7606 39.8398 46.6004 39.8749 46.4383 39.875H43.2208C43.2986 40.5823 43.2264 41.298 43.009 41.9755C42.7916 42.653 42.4339 43.2771 41.9591 43.807C41.4842 44.337 40.903 44.7608 40.2534 45.051C39.6037 45.3412 38.9002 45.4912 38.1886 45.4912C37.4771 45.4912 36.7736 45.3412 36.1239 45.051C35.4742 44.7608 34.893 44.337 34.4182 43.807C33.9434 43.2771 33.5856 42.653 33.3682 41.9755C33.1508 41.298 33.0787 40.5823 33.1565 39.875H28.5935C28.6713 40.5823 28.5992 41.298 28.3818 41.9755C28.1644 42.653 27.8066 43.2771 27.3318 43.807C26.857 44.337 26.2758 44.7608 25.6261 45.051C24.9765 45.3412 24.2729 45.4912 23.5614 45.4912C22.8498 45.4912 22.1463 45.3412 21.4966 45.051C20.847 44.7608 20.2658 44.337 19.791 43.807C19.3161 43.2771 18.9584 42.653 18.741 41.9755C18.5236 41.298 18.4514 40.5823 18.5293 39.875H18.5315ZM19.3528 37.625C19.8145 36.9316 20.4405 36.3631 21.1749 35.9698C21.9093 35.5766 22.7294 35.3708 23.5625 35.3708C24.3956 35.3708 25.2157 35.5766 25.9501 35.9698C26.6846 36.3631 27.3105 36.9316 27.7723 37.625H33.98C34.5808 36.725 35.465 36.0298 36.5023 35.663V23H18.5V37.625H19.3528ZM42.3973 37.625H45.1265L44.4358 33.125H38.75V35.4065C39.4828 35.4884 40.1889 35.7293 40.8189 36.1125C41.4489 36.4957 41.9876 37.0119 42.3973 37.625ZM44.0893 30.875L43.5718 27.5H38.75V30.875H44.0893ZM38.1875 43.25C38.9334 43.25 39.6488 42.9537 40.1762 42.4262C40.7037 41.8988 41 41.1834 41 40.4375C41 39.6916 40.7037 38.9762 40.1762 38.4488C39.6488 37.9213 38.9334 37.625 38.1875 37.625C37.4416 37.625 36.7262 37.9213 36.1988 38.4488C35.6713 38.9762 35.375 39.6916 35.375 40.4375C35.375 41.1834 35.6713 41.8988 36.1988 42.4262C36.7262 42.9537 37.4416 43.25 38.1875 43.25ZM23.5625 43.25C24.3084 43.25 25.0238 42.9537 25.5512 42.4262C26.0787 41.8988 26.375 41.1834 26.375 40.4375C26.375 39.6916 26.0787 38.9762 25.5512 38.4488C25.0238 37.9213 24.3084 37.625 23.5625 37.625C22.8166 37.625 22.1012 37.9213 21.5738 38.4488C21.0463 38.9762 20.75 39.6916 20.75 40.4375C20.75 41.1834 21.0463 41.8988 21.5738 42.4262C22.1012 42.9537 22.8166 43.25 23.5625 43.25Z" fill="#16A34A"/>
</svg>
