<svg width="64" height="64" viewBox="0 0 64 64" fill="none" xmlns="http://www.w3.org/2000/svg">
<circle cx="32" cy="32" r="32" fill="#DCFCE7"/>
<path d="M25.5 32C27.9853 32 30 29.9853 30 27.5C30 25.0147 27.9853 23 25.5 23C23.0147 23 21 25.0147 21 27.5C21 29.9853 23.0147 32 25.5 32Z" fill="#16A34A"/>
<path d="M30.625 34.5C28.865 33.6062 26.9225 33.25 25.5 33.25C22.7137 33.25 17 34.9588 17 38.375V41H26.375V39.9956C26.375 38.8081 26.875 37.6175 27.75 36.625C28.4481 35.8325 29.4256 35.0969 30.625 34.5Z" fill="#16A34A"/>
<path d="M37.25 34C33.9956 34 27.5 36.01 27.5 40V43H47V40C47 36.01 40.5044 34 37.25 34Z" fill="#16A34A"/>
<path d="M37.25 32C40.2876 32 42.75 29.5376 42.75 26.5C42.75 23.4624 40.2876 21 37.25 21C34.2124 21 31.75 23.4624 31.75 26.5C31.75 29.5376 34.2124 32 37.25 32Z" fill="#16A34A"/>
</svg>
