<svg width="32" height="32" viewBox="0 0 32 32" fill="none" xmlns="http://www.w3.org/2000/svg">
<rect width="32" height="32" rx="16" fill="#22C55E"/>
<path d="M15.7656 24.1034C20.2005 24.1034 23.7958 20.5082 23.7958 16.0732C23.7958 11.6382 20.2005 8.04297 15.7656 8.04297C11.3306 8.04297 7.73535 11.6382 7.73535 16.0732C7.73535 20.5082 11.3306 24.1034 15.7656 24.1034Z" fill="#22C55E"/>
<path d="M24.4438 5.46484L15.7709 17.9982L11.0723 13.4506V15.6866L15.9412 20.4613L24.4438 8.12707V5.46484Z" fill="#D0CFCE"/>
<path d="M23.3707 13.8771C23.7878 14.8626 24.0019 15.9221 24 16.9922C24 21.4104 20.4182 24.9922 16 24.9922C11.5818 24.9922 8 21.4104 8 16.9922C8 12.574 11.5818 8.99219 16 8.99219C17.452 8.99219 18.8133 9.37885 19.9871 10.0553" stroke="white" stroke-width="0.5" stroke-linecap="round" stroke-linejoin="round"/>
<path d="M24.477 6.66797L15.9997 18.9177L11.4072 14.4733V16.6586L16.1663 21.3253L24.477 9.26975V6.66797Z" stroke="white" stroke-width="0.5" stroke-linecap="round" stroke-linejoin="round"/>
</svg>
