<svg width="295" height="135" viewBox="0 0 295 135" fill="none" xmlns="http://www.w3.org/2000/svg">
<g filter="url(#filter0_d_659_1413)">
<rect x="20" y="16" width="255" height="95" rx="8" fill="white"/>
<g clip-path="url(#clip0_659_1413)">
<path d="M71.12 59V47.48H74.616C74.7387 47.48 74.9467 47.4827 75.24 47.488C75.5387 47.4933 75.824 47.5147 76.096 47.552C76.9707 47.6747 77.7013 48 78.288 48.528C78.8747 49.056 79.3147 49.728 79.608 50.544C79.9013 51.36 80.048 52.2587 80.048 53.24C80.048 54.2213 79.9013 55.12 79.608 55.936C79.3147 56.752 78.8747 57.424 78.288 57.952C77.7013 58.48 76.9707 58.8053 76.096 58.928C75.8293 58.96 75.544 58.9813 75.24 58.992C74.936 58.9973 74.728 59 74.616 59H71.12ZM72.336 57.872H74.616C74.8347 57.872 75.0693 57.8667 75.32 57.856C75.576 57.84 75.7947 57.8133 75.976 57.776C76.648 57.6587 77.1893 57.3867 77.6 56.96C78.016 56.5333 78.32 56 78.512 55.36C78.704 54.7147 78.8 54.008 78.8 53.24C78.8 52.4667 78.704 51.7573 78.512 51.112C78.32 50.4667 78.016 49.9333 77.6 49.512C77.184 49.0907 76.6427 48.8213 75.976 48.704C75.7947 48.6667 75.5733 48.6427 75.312 48.632C75.056 48.616 74.824 48.608 74.616 48.608H72.336V57.872ZM82.03 48.72V47.4H83.206V48.72H82.03ZM82.03 59V50.36H83.206V59H82.03ZM85.6044 59V50.36H86.6604V52.44L86.4524 52.168C86.5484 51.912 86.6737 51.6773 86.8284 51.464C86.983 51.2453 87.151 51.0667 87.3324 50.928C87.5564 50.7307 87.8177 50.5813 88.1164 50.48C88.415 50.3733 88.7164 50.312 89.0204 50.296C89.3244 50.2747 89.6017 50.296 89.8524 50.36V51.464C89.5377 51.384 89.1937 51.3653 88.8204 51.408C88.447 51.4507 88.103 51.6 87.7884 51.856C87.5004 52.08 87.2844 52.3493 87.1404 52.664C86.9964 52.9733 86.9004 53.304 86.8524 53.656C86.8044 54.0027 86.7804 54.3467 86.7804 54.688V59H85.6044ZM94.8698 59.24C94.0271 59.24 93.2964 59.0533 92.6778 58.68C92.0644 58.3067 91.5871 57.7813 91.2458 57.104C90.9044 56.4267 90.7338 55.632 90.7338 54.72C90.7338 53.776 90.9018 52.96 91.2378 52.272C91.5738 51.584 92.0458 51.0533 92.6538 50.68C93.2671 50.3067 93.9898 50.12 94.8218 50.12C95.6751 50.12 96.4031 50.3173 97.0058 50.712C97.6084 51.1013 98.0644 51.6613 98.3738 52.392C98.6831 53.1227 98.8244 53.9947 98.7978 55.008H97.5978V54.592C97.5764 53.472 97.3338 52.6267 96.8698 52.056C96.4111 51.4853 95.7391 51.2 94.8538 51.2C93.9258 51.2 93.2138 51.5013 92.7178 52.104C92.2271 52.7067 91.9818 53.5653 91.9818 54.68C91.9818 55.768 92.2271 56.6133 92.7178 57.216C93.2138 57.8133 93.9151 58.112 94.8218 58.112C95.4404 58.112 95.9791 57.9707 96.4378 57.688C96.9018 57.4 97.2671 56.9867 97.5338 56.448L98.6298 56.872C98.2884 57.624 97.7844 58.208 97.1178 58.624C96.4564 59.0347 95.7071 59.24 94.8698 59.24ZM91.5658 55.008V54.024H98.1658V55.008H91.5658ZM104.157 59.24C103.288 59.24 102.552 59.0453 101.949 58.656C101.346 58.2667 100.888 57.7307 100.573 57.048C100.264 56.36 100.104 55.5707 100.093 54.68C100.104 53.7733 100.269 52.9787 100.589 52.296C100.909 51.608 101.37 51.0747 101.973 50.696C102.576 50.312 103.306 50.12 104.165 50.12C105.04 50.12 105.8 50.3333 106.445 50.76C107.096 51.1867 107.541 51.7707 107.781 52.512L106.629 52.88C106.426 52.3627 106.104 51.9627 105.661 51.68C105.224 51.392 104.722 51.248 104.157 51.248C103.522 51.248 102.997 51.3947 102.581 51.688C102.165 51.976 101.856 52.3787 101.653 52.896C101.45 53.4133 101.346 54.008 101.341 54.68C101.352 55.7147 101.592 56.5467 102.061 57.176C102.53 57.8 103.229 58.112 104.157 58.112C104.744 58.112 105.242 57.9787 105.653 57.712C106.069 57.44 106.384 57.0453 106.597 56.528L107.781 56.88C107.461 57.648 106.992 58.2347 106.373 58.64C105.754 59.04 105.016 59.24 104.157 59.24ZM114.137 59C113.651 59.1013 113.171 59.1413 112.697 59.12C112.227 59.0987 111.806 58.9973 111.433 58.816C111.065 58.6347 110.785 58.352 110.593 57.968C110.438 57.648 110.353 57.3253 110.337 57C110.326 56.6693 110.321 56.2933 110.321 55.872V47.96H111.489V55.824C111.489 56.1867 111.491 56.4907 111.497 56.736C111.507 56.976 111.563 57.1893 111.665 57.376C111.857 57.7333 112.161 57.9467 112.577 58.016C112.998 58.0853 113.518 58.0693 114.137 57.968V59ZM108.473 51.368V50.36H114.137V51.368H108.473ZM122.106 59V48.608H118.082V47.48H127.306V48.608H123.282V59H122.106ZM127.792 59V50.36H128.848V52.44L128.64 52.168C128.736 51.912 128.861 51.6773 129.016 51.464C129.171 51.2453 129.339 51.0667 129.52 50.928C129.744 50.7307 130.005 50.5813 130.304 50.48C130.603 50.3733 130.904 50.312 131.208 50.296C131.512 50.2747 131.789 50.296 132.04 50.36V51.464C131.725 51.384 131.381 51.3653 131.008 51.408C130.635 51.4507 130.291 51.6 129.976 51.856C129.688 52.08 129.472 52.3493 129.328 52.664C129.184 52.9733 129.088 53.304 129.04 53.656C128.992 54.0027 128.968 54.3467 128.968 54.688V59H127.792ZM135.701 59.24C135.051 59.24 134.504 59.1227 134.061 58.888C133.624 58.6533 133.296 58.3413 133.077 57.952C132.859 57.5627 132.749 57.1387 132.749 56.68C132.749 56.2107 132.843 55.8107 133.029 55.48C133.221 55.144 133.48 54.8693 133.805 54.656C134.136 54.4427 134.517 54.28 134.949 54.168C135.387 54.0613 135.869 53.968 136.397 53.888C136.931 53.8027 137.451 53.7307 137.957 53.672C138.469 53.608 138.917 53.5467 139.301 53.488L138.885 53.744C138.901 52.8907 138.736 52.2587 138.389 51.848C138.043 51.4373 137.44 51.232 136.581 51.232C135.989 51.232 135.488 51.3653 135.077 51.632C134.672 51.8987 134.387 52.32 134.221 52.896L133.077 52.56C133.275 51.7867 133.672 51.1867 134.269 50.76C134.867 50.3333 135.643 50.12 136.597 50.12C137.387 50.12 138.056 50.2693 138.605 50.568C139.16 50.8613 139.552 51.288 139.781 51.848C139.888 52.0987 139.957 52.3787 139.989 52.688C140.021 52.9973 140.037 53.312 140.037 53.632V59H138.989V56.832L139.293 56.96C139 57.7013 138.544 58.2667 137.925 58.656C137.307 59.0453 136.565 59.24 135.701 59.24ZM135.837 58.224C136.387 58.224 136.867 58.1253 137.277 57.928C137.688 57.7307 138.019 57.4613 138.269 57.12C138.52 56.7733 138.683 56.384 138.757 55.952C138.821 55.6747 138.856 55.3707 138.861 55.04C138.867 54.704 138.869 54.4533 138.869 54.288L139.317 54.52C138.917 54.5733 138.483 54.6267 138.013 54.68C137.549 54.7333 137.091 54.7947 136.637 54.864C136.189 54.9333 135.784 55.016 135.421 55.112C135.176 55.1813 134.939 55.28 134.709 55.408C134.48 55.5307 134.291 55.696 134.141 55.904C133.997 56.112 133.925 56.3707 133.925 56.68C133.925 56.9307 133.987 57.1733 134.109 57.408C134.237 57.6427 134.44 57.8373 134.717 57.992C135 58.1467 135.373 58.224 135.837 58.224ZM145.472 59.24C144.667 59.24 143.979 59.04 143.408 58.64C142.837 58.2347 142.4 57.688 142.096 57C141.792 56.312 141.64 55.536 141.64 54.672C141.64 53.8133 141.789 53.04 142.088 52.352C142.392 51.664 142.827 51.12 143.392 50.72C143.957 50.32 144.635 50.12 145.424 50.12C146.235 50.12 146.917 50.3173 147.472 50.712C148.027 51.1067 148.445 51.648 148.728 52.336C149.016 53.0187 149.16 53.7973 149.16 54.672C149.16 55.5307 149.019 56.3067 148.736 57C148.453 57.688 148.037 58.2347 147.488 58.64C146.939 59.04 146.267 59.24 145.472 59.24ZM145.592 58.144C146.205 58.144 146.712 57.9947 147.112 57.696C147.512 57.3973 147.811 56.9867 148.008 56.464C148.205 55.936 148.304 55.3387 148.304 54.672C148.304 53.9947 148.205 53.3973 148.008 52.88C147.811 52.3573 147.512 51.9493 147.112 51.656C146.717 51.3627 146.219 51.216 145.616 51.216C144.997 51.216 144.485 51.368 144.08 51.672C143.675 51.976 143.373 52.3893 143.176 52.912C142.984 53.4347 142.888 54.0213 142.888 54.672C142.888 55.328 142.987 55.92 143.184 56.448C143.387 56.9707 143.688 57.384 144.088 57.688C144.488 57.992 144.989 58.144 145.592 58.144ZM148.304 59V52.496H148.176V47.48H149.36V59H148.304ZM155.26 59.24C154.418 59.24 153.687 59.0533 153.068 58.68C152.455 58.3067 151.978 57.7813 151.636 57.104C151.295 56.4267 151.124 55.632 151.124 54.72C151.124 53.776 151.292 52.96 151.628 52.272C151.964 51.584 152.436 51.0533 153.044 50.68C153.658 50.3067 154.38 50.12 155.212 50.12C156.066 50.12 156.794 50.3173 157.396 50.712C157.999 51.1013 158.455 51.6613 158.764 52.392C159.074 53.1227 159.215 53.9947 159.188 55.008H157.988V54.592C157.967 53.472 157.724 52.6267 157.26 52.056C156.802 51.4853 156.13 51.2 155.244 51.2C154.316 51.2 153.604 51.5013 153.108 52.104C152.618 52.7067 152.372 53.5653 152.372 54.68C152.372 55.768 152.618 56.6133 153.108 57.216C153.604 57.8133 154.306 58.112 155.212 58.112C155.831 58.112 156.37 57.9707 156.828 57.688C157.292 57.4 157.658 56.9867 157.924 56.448L159.02 56.872C158.679 57.624 158.175 58.208 157.508 58.624C156.847 59.0347 156.098 59.24 155.26 59.24ZM151.956 55.008V54.024H158.556V55.008H151.956Z" fill="black"/>
<path d="M70.98 81V70.92H72.016L77.567 79.18V70.92H78.603V81H77.567L72.016 72.733V81H70.98ZM83.721 81.21C82.9697 81.21 82.328 81.0397 81.796 80.699C81.264 80.3583 80.8557 79.887 80.571 79.285C80.2863 78.683 80.144 77.9923 80.144 77.213C80.144 76.4197 80.2887 75.7243 80.578 75.127C80.8673 74.5297 81.278 74.0653 81.81 73.734C82.3467 73.398 82.9837 73.23 83.721 73.23C84.477 73.23 85.121 73.4003 85.653 73.741C86.1897 74.077 86.598 74.546 86.878 75.148C87.1627 75.7453 87.305 76.4337 87.305 77.213C87.305 78.0063 87.1627 78.704 86.878 79.306C86.5933 79.9033 86.1827 80.37 85.646 80.706C85.1093 81.042 84.4677 81.21 83.721 81.21ZM83.721 80.223C84.561 80.223 85.1863 79.9453 85.597 79.39C86.0077 78.83 86.213 78.1043 86.213 77.213C86.213 76.2983 86.0053 75.5703 85.59 75.029C85.1793 74.4877 84.5563 74.217 83.721 74.217C83.1563 74.217 82.6897 74.3453 82.321 74.602C81.957 74.854 81.684 75.2063 81.502 75.659C81.3247 76.107 81.236 76.625 81.236 77.213C81.236 78.123 81.446 78.8533 81.866 79.404C82.286 79.95 82.9043 80.223 83.721 80.223ZM100.668 81L100.675 76.037C100.675 75.4537 100.512 74.9963 100.185 74.665C99.8629 74.329 99.4522 74.161 98.9529 74.161C98.6682 74.161 98.3905 74.2263 98.1199 74.357C97.8492 74.4877 97.6252 74.6977 97.4479 74.987C97.2752 75.2763 97.1889 75.6543 97.1889 76.121L96.5799 75.946C96.5659 75.4047 96.6709 74.931 96.8949 74.525C97.1235 74.119 97.4362 73.804 97.8329 73.58C98.2342 73.3513 98.6869 73.237 99.1909 73.237C99.9515 73.237 100.561 73.4727 101.018 73.944C101.475 74.4107 101.704 75.043 101.704 75.841L101.697 81H100.668ZM91.6449 81V73.44H92.5689V75.302H92.6809V81H91.6449ZM96.1669 81L96.1739 76.107C96.1739 75.505 96.0129 75.0313 95.6909 74.686C95.3735 74.336 94.9535 74.161 94.4309 74.161C93.9082 74.161 93.4859 74.3407 93.1639 74.7C92.8419 75.0547 92.6809 75.5283 92.6809 76.121L92.0649 75.785C92.0649 75.2997 92.1792 74.8657 92.4079 74.483C92.6365 74.0957 92.9492 73.7923 93.3459 73.573C93.7425 73.349 94.1929 73.237 94.6969 73.237C95.1775 73.237 95.6045 73.3397 95.9779 73.545C96.3559 73.7503 96.6522 74.049 96.8669 74.441C97.0815 74.833 97.1889 75.309 97.1889 75.869L97.1819 81H96.1669ZM103.659 72.005V70.85H104.688V72.005H103.659ZM103.659 81V73.44H104.688V81H103.659ZM109.72 81.21C109.015 81.21 108.413 81.035 107.914 80.685C107.414 80.3303 107.032 79.852 106.766 79.25C106.5 78.648 106.367 77.969 106.367 77.213C106.367 76.4617 106.497 75.785 106.759 75.183C107.025 74.581 107.405 74.105 107.9 73.755C108.394 73.405 108.987 73.23 109.678 73.23C110.387 73.23 110.984 73.4027 111.47 73.748C111.955 74.0933 112.321 74.567 112.569 75.169C112.821 75.7663 112.947 76.4477 112.947 77.213C112.947 77.9643 112.823 78.6433 112.576 79.25C112.328 79.852 111.964 80.3303 111.484 80.685C111.003 81.035 110.415 81.21 109.72 81.21ZM109.825 80.251C110.361 80.251 110.805 80.1203 111.155 79.859C111.505 79.5977 111.766 79.2383 111.939 78.781C112.111 78.319 112.198 77.7963 112.198 77.213C112.198 76.6203 112.111 76.0977 111.939 75.645C111.766 75.1877 111.505 74.8307 111.155 74.574C110.809 74.3173 110.373 74.189 109.846 74.189C109.304 74.189 108.856 74.322 108.502 74.588C108.147 74.854 107.883 75.2157 107.711 75.673C107.543 76.1303 107.459 76.6437 107.459 77.213C107.459 77.787 107.545 78.305 107.718 78.767C107.895 79.2243 108.159 79.586 108.509 79.852C108.859 80.118 109.297 80.251 109.825 80.251ZM112.198 81V75.309H112.086V70.92H113.122V81H112.198ZM118.018 81.21C117.314 81.21 116.712 81.035 116.212 80.685C115.713 80.3303 115.33 79.852 115.064 79.25C114.798 78.648 114.665 77.969 114.665 77.213C114.665 76.4617 114.796 75.785 115.057 75.183C115.323 74.581 115.704 74.105 116.198 73.755C116.693 73.405 117.286 73.23 117.976 73.23C118.686 73.23 119.283 73.4027 119.768 73.748C120.254 74.0933 120.62 74.567 120.867 75.169C121.119 75.7663 121.245 76.4477 121.245 77.213C121.245 77.9643 121.122 78.6433 120.874 79.25C120.627 79.852 120.263 80.3303 119.782 80.685C119.302 81.035 118.714 81.21 118.018 81.21ZM118.123 80.251C118.66 80.251 119.103 80.1203 119.453 79.859C119.803 79.5977 120.065 79.2383 120.237 78.781C120.41 78.319 120.496 77.7963 120.496 77.213C120.496 76.6203 120.41 76.0977 120.237 75.645C120.065 75.1877 119.803 74.8307 119.453 74.574C119.108 74.3173 118.672 74.189 118.144 74.189C117.603 74.189 117.155 74.322 116.8 74.588C116.446 74.854 116.182 75.2157 116.009 75.673C115.841 76.1303 115.757 76.6437 115.757 77.213C115.757 77.787 115.844 78.305 116.016 78.767C116.194 79.2243 116.457 79.586 116.807 79.852C117.157 80.118 117.596 80.251 118.123 80.251ZM120.496 81V75.309H120.384V70.92H121.42V81H120.496ZM123.524 81V70.71H124.553V81H123.524ZM129.851 81.21C129.114 81.21 128.474 81.0467 127.933 80.72C127.396 80.3933 126.979 79.9337 126.68 79.341C126.381 78.7483 126.232 78.053 126.232 77.255C126.232 76.429 126.379 75.715 126.673 75.113C126.967 74.511 127.38 74.0467 127.912 73.72C128.449 73.3933 129.081 73.23 129.809 73.23C130.556 73.23 131.193 73.4027 131.72 73.748C132.247 74.0887 132.646 74.5787 132.917 75.218C133.188 75.8573 133.311 76.6203 133.288 77.507H132.238V77.143C132.219 76.163 132.007 75.4233 131.601 74.924C131.2 74.4247 130.612 74.175 129.837 74.175C129.025 74.175 128.402 74.4387 127.968 74.966C127.539 75.4933 127.324 76.2447 127.324 77.22C127.324 78.172 127.539 78.9117 127.968 79.439C128.402 79.9617 129.016 80.223 129.809 80.223C130.35 80.223 130.822 80.0993 131.223 79.852C131.629 79.6 131.949 79.2383 132.182 78.767L133.141 79.138C132.842 79.796 132.401 80.307 131.818 80.671C131.239 81.0303 130.584 81.21 129.851 81.21ZM126.96 77.507V76.646H132.735V77.507H126.96ZM143.652 81L143.659 76.037C143.659 75.4537 143.496 74.9963 143.169 74.665C142.847 74.329 142.437 74.161 141.937 74.161C141.653 74.161 141.375 74.2263 141.104 74.357C140.834 74.4877 140.61 74.6977 140.432 74.987C140.26 75.2763 140.173 75.6543 140.173 76.121L139.564 75.946C139.55 75.4047 139.655 74.931 139.879 74.525C140.108 74.119 140.421 73.804 140.817 73.58C141.219 73.3513 141.671 73.237 142.175 73.237C142.936 73.237 143.545 73.4727 144.002 73.944C144.46 74.4107 144.688 75.043 144.688 75.841L144.681 81H143.652ZM134.629 81V73.44H135.553V75.302H135.665V81H134.629ZM139.151 81L139.158 76.107C139.158 75.505 138.997 75.0313 138.675 74.686C138.358 74.336 137.938 74.161 137.415 74.161C136.893 74.161 136.47 74.3407 136.148 74.7C135.826 75.0547 135.665 75.5283 135.665 76.121L135.049 75.785C135.049 75.2997 135.164 74.8657 135.392 74.483C135.621 74.0957 135.934 73.7923 136.33 73.573C136.727 73.349 137.177 73.237 137.681 73.237C138.162 73.237 138.589 73.3397 138.962 73.545C139.34 73.7503 139.637 74.049 139.851 74.441C140.066 74.833 140.173 75.309 140.173 75.869L140.166 81H139.151ZM149.661 81.21C148.924 81.21 148.285 81.0467 147.743 80.72C147.207 80.3933 146.789 79.9337 146.49 79.341C146.192 78.7483 146.042 78.053 146.042 77.255C146.042 76.429 146.189 75.715 146.483 75.113C146.777 74.511 147.19 74.0467 147.722 73.72C148.259 73.3933 148.891 73.23 149.619 73.23C150.366 73.23 151.003 73.4027 151.53 73.748C152.058 74.0887 152.457 74.5787 152.727 75.218C152.998 75.8573 153.122 76.6203 153.098 77.507H152.048V77.143C152.03 76.163 151.817 75.4233 151.411 74.924C151.01 74.4247 150.422 74.175 149.647 74.175C148.835 74.175 148.212 74.4387 147.778 74.966C147.349 75.4933 147.134 76.2447 147.134 77.22C147.134 78.172 147.349 78.9117 147.778 79.439C148.212 79.9617 148.826 80.223 149.619 80.223C150.161 80.223 150.632 80.0993 151.033 79.852C151.439 79.6 151.759 79.2383 151.992 78.767L152.951 79.138C152.653 79.796 152.212 80.307 151.628 80.671C151.05 81.0303 150.394 81.21 149.661 81.21ZM146.77 77.507V76.646H152.545V77.507H146.77ZM159.907 81V77.143C159.907 76.723 159.867 76.338 159.788 75.988C159.708 75.6333 159.58 75.3253 159.403 75.064C159.23 74.798 159.004 74.5927 158.724 74.448C158.448 74.3033 158.112 74.231 157.716 74.231C157.352 74.231 157.03 74.294 156.75 74.42C156.474 74.546 156.241 74.728 156.05 74.966C155.863 75.1993 155.721 75.484 155.623 75.82C155.525 76.156 155.476 76.5387 155.476 76.968L154.748 76.807C154.748 76.0323 154.883 75.3813 155.154 74.854C155.424 74.3267 155.798 73.9277 156.274 73.657C156.75 73.3863 157.296 73.251 157.912 73.251C158.364 73.251 158.759 73.321 159.095 73.461C159.435 73.601 159.722 73.79 159.956 74.028C160.194 74.266 160.385 74.539 160.53 74.847C160.674 75.1503 160.779 75.4747 160.845 75.82C160.91 76.1607 160.943 76.5013 160.943 76.842V81H159.907ZM154.44 81V73.44H155.371V75.302H155.476V81H154.44ZM162.619 82.463L162.682 81.952C162.869 81.966 163.004 81.9287 163.088 81.84C163.172 81.7513 163.224 81.6323 163.242 81.483C163.261 81.3337 163.266 81.1727 163.256 81H162.619V79.523H163.816V81.28C163.816 81.7093 163.707 82.0313 163.487 82.246C163.273 82.4607 162.983 82.533 162.619 82.463ZM172.676 81.21C171.98 81.21 171.392 81.035 170.912 80.685C170.431 80.3303 170.067 79.852 169.82 79.25C169.572 78.6433 169.449 77.9643 169.449 77.213C169.449 76.4477 169.572 75.7663 169.82 75.169C170.072 74.567 170.44 74.0933 170.926 73.748C171.411 73.4027 172.008 73.23 172.718 73.23C173.408 73.23 174.001 73.405 174.496 73.755C174.99 74.105 175.368 74.581 175.63 75.183C175.896 75.785 176.029 76.4617 176.029 77.213C176.029 77.969 175.896 78.648 175.63 79.25C175.364 79.852 174.981 80.3303 174.482 80.685C173.982 81.035 173.38 81.21 172.676 81.21ZM169.274 81V70.92H170.31V75.309H170.198V81H169.274ZM172.571 80.251C173.098 80.251 173.537 80.118 173.887 79.852C174.237 79.586 174.498 79.2243 174.671 78.767C174.848 78.305 174.937 77.787 174.937 77.213C174.937 76.6437 174.85 76.1303 174.678 75.673C174.505 75.2157 174.241 74.854 173.887 74.588C173.537 74.322 173.091 74.189 172.55 74.189C172.022 74.189 171.584 74.3173 171.234 74.574C170.888 74.8307 170.629 75.1877 170.457 75.645C170.284 76.0977 170.198 76.6203 170.198 77.213C170.198 77.7963 170.284 78.319 170.457 78.781C170.629 79.2383 170.891 79.5977 171.241 79.859C171.591 80.1203 172.034 80.251 172.571 80.251ZM180.765 81.21C180.028 81.21 179.388 81.0467 178.847 80.72C178.31 80.3933 177.893 79.9337 177.594 79.341C177.295 78.7483 177.146 78.053 177.146 77.255C177.146 76.429 177.293 75.715 177.587 75.113C177.881 74.511 178.294 74.0467 178.826 73.72C179.363 73.3933 179.995 73.23 180.723 73.23C181.47 73.23 182.107 73.4027 182.634 73.748C183.161 74.0887 183.56 74.5787 183.831 75.218C184.102 75.8573 184.225 76.6203 184.202 77.507H183.152V77.143C183.133 76.163 182.921 75.4233 182.515 74.924C182.114 74.4247 181.526 74.175 180.751 74.175C179.939 74.175 179.316 74.4387 178.882 74.966C178.453 75.4933 178.238 76.2447 178.238 77.22C178.238 78.172 178.453 78.9117 178.882 79.439C179.316 79.9617 179.93 80.223 180.723 80.223C181.264 80.223 181.736 80.0993 182.137 79.852C182.543 79.6 182.863 79.2383 183.096 78.767L184.055 79.138C183.756 79.796 183.315 80.307 182.732 80.671C182.153 81.0303 181.498 81.21 180.765 81.21ZM177.874 77.507V76.646H183.649V77.507H177.874ZM189.871 81C189.447 81.0887 189.027 81.1237 188.611 81.105C188.201 81.0863 187.832 80.9977 187.505 80.839C187.183 80.6803 186.938 80.433 186.77 80.097C186.635 79.817 186.56 79.5347 186.546 79.25C186.537 78.9607 186.532 78.6317 186.532 78.263V71.34H187.554V78.221C187.554 78.5383 187.557 78.8043 187.561 79.019C187.571 79.229 187.62 79.4157 187.708 79.579C187.876 79.8917 188.142 80.0783 188.506 80.139C188.875 80.1997 189.33 80.1857 189.871 80.097V81ZM184.915 74.322V73.44H189.871V74.322H184.915ZM194.638 81C194.214 81.0887 193.794 81.1237 193.378 81.105C192.968 81.0863 192.599 80.9977 192.272 80.839C191.95 80.6803 191.705 80.433 191.537 80.097C191.402 79.817 191.327 79.5347 191.313 79.25C191.304 78.9607 191.299 78.6317 191.299 78.263V71.34H192.321V78.221C192.321 78.5383 192.324 78.8043 192.328 79.019C192.338 79.229 192.387 79.4157 192.475 79.579C192.643 79.8917 192.909 80.0783 193.273 80.139C193.642 80.1997 194.097 80.1857 194.638 80.097V81ZM189.682 74.322V73.44H194.638V74.322H189.682ZM199.331 81.21C198.594 81.21 197.955 81.0467 197.413 80.72C196.877 80.3933 196.459 79.9337 196.16 79.341C195.862 78.7483 195.712 78.053 195.712 77.255C195.712 76.429 195.859 75.715 196.153 75.113C196.447 74.511 196.86 74.0467 197.392 73.72C197.929 73.3933 198.561 73.23 199.289 73.23C200.036 73.23 200.673 73.4027 201.2 73.748C201.728 74.0887 202.127 74.5787 202.397 75.218C202.668 75.8573 202.792 76.6203 202.768 77.507H201.718V77.143C201.7 76.163 201.487 75.4233 201.081 74.924C200.68 74.4247 200.092 74.175 199.317 74.175C198.505 74.175 197.882 74.4387 197.448 74.966C197.019 75.4933 196.804 76.2447 196.804 77.22C196.804 78.172 197.019 78.9117 197.448 79.439C197.882 79.9617 198.496 80.223 199.289 80.223C199.831 80.223 200.302 80.0993 200.703 79.852C201.109 79.6 201.429 79.2383 201.662 78.767L202.621 79.138C202.323 79.796 201.882 80.307 201.298 80.671C200.72 81.0303 200.064 81.21 199.331 81.21ZM196.44 77.507V76.646H202.215V77.507H196.44ZM204.322 81V73.44H205.246V75.26L205.064 75.022C205.148 74.798 205.257 74.5927 205.393 74.406C205.528 74.2147 205.675 74.0583 205.834 73.937C206.03 73.7643 206.258 73.6337 206.52 73.545C206.781 73.4517 207.045 73.398 207.311 73.384C207.577 73.3653 207.819 73.384 208.039 73.44V74.406C207.763 74.336 207.462 74.3197 207.136 74.357C206.809 74.3943 206.508 74.525 206.233 74.749C205.981 74.945 205.792 75.1807 205.666 75.456C205.54 75.7267 205.456 76.016 205.414 76.324C205.372 76.6273 205.351 76.9283 205.351 77.227V81H204.322ZM215.564 81.21C214.869 81.21 214.281 81.035 213.8 80.685C213.32 80.3303 212.956 79.852 212.708 79.25C212.461 78.6433 212.337 77.9643 212.337 77.213C212.337 76.4477 212.461 75.7663 212.708 75.169C212.96 74.567 213.329 74.0933 213.814 73.748C214.3 73.4027 214.897 73.23 215.606 73.23C216.297 73.23 216.89 73.405 217.384 73.755C217.879 74.105 218.257 74.581 218.518 75.183C218.784 75.785 218.917 76.4617 218.917 77.213C218.917 77.969 218.784 78.648 218.518 79.25C218.252 79.852 217.87 80.3303 217.37 80.685C216.871 81.035 216.269 81.21 215.564 81.21ZM212.162 84.36V73.44H213.086V79.131H213.198V84.36H212.162ZM215.459 80.251C215.987 80.251 216.425 80.118 216.775 79.852C217.125 79.586 217.387 79.2243 217.559 78.767C217.737 78.305 217.825 77.787 217.825 77.213C217.825 76.6437 217.739 76.1303 217.566 75.673C217.394 75.2157 217.13 74.854 216.775 74.588C216.425 74.322 215.98 74.189 215.438 74.189C214.911 74.189 214.472 74.3173 214.122 74.574C213.777 74.8307 213.518 75.1877 213.345 75.645C213.173 76.0977 213.086 76.6203 213.086 77.213C213.086 77.7963 213.173 78.319 213.345 78.781C213.518 79.2383 213.779 79.5977 214.129 79.859C214.479 80.1203 214.923 80.251 215.459 80.251ZM220.455 81V73.44H221.379V75.26L221.197 75.022C221.281 74.798 221.39 74.5927 221.526 74.406C221.661 74.2147 221.808 74.0583 221.967 73.937C222.163 73.7643 222.391 73.6337 222.653 73.545C222.914 73.4517 223.178 73.398 223.444 73.384C223.71 73.3653 223.952 73.384 224.172 73.44V74.406C223.896 74.336 223.595 74.3197 223.269 74.357C222.942 74.3943 222.641 74.525 222.366 74.749C222.114 74.945 221.925 75.1807 221.799 75.456C221.673 75.7267 221.589 76.016 221.547 76.324C221.505 76.6273 221.484 76.9283 221.484 77.227V81H220.455ZM225.64 72.005V70.85H226.669V72.005H225.64ZM225.64 81V73.44H226.669V81H225.64ZM231.903 81.21C231.142 81.21 230.498 81.0397 229.971 80.699C229.444 80.3583 229.042 79.8893 228.767 79.292C228.496 78.69 228.356 77.9993 228.347 77.22C228.356 76.4267 228.501 75.7313 228.781 75.134C229.061 74.532 229.465 74.0653 229.992 73.734C230.519 73.398 231.159 73.23 231.91 73.23C232.675 73.23 233.34 73.4167 233.905 73.79C234.474 74.1633 234.864 74.6743 235.074 75.323L234.066 75.645C233.889 75.1923 233.606 74.8423 233.219 74.595C232.836 74.343 232.398 74.217 231.903 74.217C231.348 74.217 230.888 74.3453 230.524 74.602C230.16 74.854 229.889 75.2063 229.712 75.659C229.535 76.1117 229.444 76.632 229.439 77.22C229.448 78.1253 229.658 78.8533 230.069 79.404C230.48 79.95 231.091 80.223 231.903 80.223C232.416 80.223 232.853 80.1063 233.212 79.873C233.576 79.635 233.851 79.2897 234.038 78.837L235.074 79.145C234.794 79.817 234.383 80.3303 233.842 80.685C233.301 81.035 232.654 81.21 231.903 81.21ZM239.513 81.21C238.776 81.21 238.136 81.0467 237.595 80.72C237.058 80.3933 236.641 79.9337 236.342 79.341C236.043 78.7483 235.894 78.053 235.894 77.255C235.894 76.429 236.041 75.715 236.335 75.113C236.629 74.511 237.042 74.0467 237.574 73.72C238.111 73.3933 238.743 73.23 239.471 73.23C240.218 73.23 240.855 73.4027 241.382 73.748C241.909 74.0887 242.308 74.5787 242.579 75.218C242.85 75.8573 242.973 76.6203 242.95 77.507H241.9V77.143C241.881 76.163 241.669 75.4233 241.263 74.924C240.862 74.4247 240.274 74.175 239.499 74.175C238.687 74.175 238.064 74.4387 237.63 74.966C237.201 75.4933 236.986 76.2447 236.986 77.22C236.986 78.172 237.201 78.9117 237.63 79.439C238.064 79.9617 238.678 80.223 239.471 80.223C240.012 80.223 240.484 80.0993 240.885 79.852C241.291 79.6 241.611 79.2383 241.844 78.767L242.803 79.138C242.504 79.796 242.063 80.307 241.48 80.671C240.901 81.0303 240.246 81.21 239.513 81.21ZM236.622 77.507V76.646H242.397V77.507H236.622ZM247.324 81.203C246.438 81.203 245.707 81.0117 245.133 80.629C244.564 80.2463 244.214 79.7143 244.083 79.033L245.133 78.858C245.245 79.2873 245.5 79.6303 245.896 79.887C246.298 80.139 246.792 80.265 247.38 80.265C247.954 80.265 248.407 80.146 248.738 79.908C249.07 79.6653 249.235 79.3363 249.235 78.921C249.235 78.6877 249.182 78.4987 249.074 78.354C248.972 78.2047 248.759 78.067 248.437 77.941C248.115 77.815 247.635 77.6657 246.995 77.493C246.309 77.3063 245.773 77.1197 245.385 76.933C244.998 76.7463 244.723 76.5317 244.559 76.289C244.396 76.0417 244.314 75.7407 244.314 75.386C244.314 74.9567 244.436 74.581 244.678 74.259C244.921 73.9323 245.257 73.6803 245.686 73.503C246.116 73.321 246.615 73.23 247.184 73.23C247.754 73.23 248.262 73.3233 248.71 73.51C249.163 73.692 249.527 73.9487 249.802 74.28C250.078 74.6113 250.241 74.9963 250.292 75.435L249.242 75.624C249.172 75.1807 248.951 74.8307 248.577 74.574C248.209 74.3127 247.74 74.1773 247.17 74.168C246.634 74.154 246.197 74.2567 245.861 74.476C245.525 74.6907 245.357 74.9777 245.357 75.337C245.357 75.5377 245.418 75.7103 245.539 75.855C245.661 75.995 245.88 76.128 246.197 76.254C246.519 76.38 246.977 76.5177 247.569 76.667C248.265 76.8443 248.811 77.031 249.207 77.227C249.604 77.423 249.886 77.654 250.054 77.92C250.222 78.186 250.306 78.515 250.306 78.907C250.306 79.621 250.04 80.1833 249.508 80.594C248.981 81 248.253 81.203 247.324 81.203Z" fill="#6D7280"/>
</g>
<rect x="29" y="48" width="32" height="32" rx="16" fill="#22C55E"/>
<path d="M44.7656 72.1034C49.2005 72.1034 52.7958 68.5082 52.7958 64.0732C52.7958 59.6382 49.2005 56.043 44.7656 56.043C40.3306 56.043 36.7354 59.6382 36.7354 64.0732C36.7354 68.5082 40.3306 72.1034 44.7656 72.1034Z" fill="#22C55E"/>
<path d="M53.4438 53.4648L44.7709 65.9982L40.0723 61.4506V63.6866L44.9412 68.4613L53.4438 56.1271V53.4648Z" fill="#D0CFCE"/>
<path d="M52.3707 61.8771C52.7878 62.8626 53.0019 63.9221 53 64.9922C53 69.4104 49.4182 72.9922 45 72.9922C40.5818 72.9922 37 69.4104 37 64.9922C37 60.574 40.5818 56.9922 45 56.9922C46.452 56.9922 47.8133 57.3789 48.9871 58.0553" stroke="white" stroke-width="0.5" stroke-linecap="round" stroke-linejoin="round"/>
<path d="M53.477 54.668L44.9997 66.9177L40.4072 62.4733V64.6586L45.1663 69.3253L53.477 57.2697V54.668Z" stroke="white" stroke-width="0.5" stroke-linecap="round" stroke-linejoin="round"/>
</g>
<defs>
<filter id="filter0_d_659_1413" x="0" y="0" width="295" height="135" filterUnits="userSpaceOnUse" color-interpolation-filters="sRGB">
<feFlood flood-opacity="0" result="BackgroundImageFix"/>
<feColorMatrix in="SourceAlpha" type="matrix" values="0 0 0 0 0 0 0 0 0 0 0 0 0 0 0 0 0 0 127 0" result="hardAlpha"/>
<feMorphology radius="2" operator="dilate" in="SourceAlpha" result="effect1_dropShadow_659_1413"/>
<feOffset dy="4"/>
<feGaussianBlur stdDeviation="9"/>
<feComposite in2="hardAlpha" operator="out"/>
<feColorMatrix type="matrix" values="0 0 0 0 0 0 0 0 0 0 0 0 0 0 0 0 0 0 0.25 0"/>
<feBlend mode="normal" in2="BackgroundImageFix" result="effect1_dropShadow_659_1413"/>
<feBlend mode="normal" in="SourceGraphic" in2="effect1_dropShadow_659_1413" result="shape"/>
</filter>
<clipPath id="clip0_659_1413">
<rect width="181" height="45" fill="white" transform="translate(70 41)"/>
</clipPath>
</defs>
</svg>
