<svg width="24" height="21" viewBox="0 0 24 21" fill="none" xmlns="http://www.w3.org/2000/svg">
<path d="M10.5054 1.87391C6.56872 4.39457 4.60038 7.43024 4.60038 10.9809C4.60038 12.0856 4.79272 12.6379 5.17738 12.6379L5.57338 12.5309C5.88472 12.4109 6.13672 12.3509 6.32938 12.3509C7.45738 12.3509 8.39905 12.7609 9.15438 13.5809C9.90972 14.4009 10.2877 15.4129 10.2884 16.6169C10.2877 17.7742 9.87938 18.7566 9.06338 19.5639C8.24738 20.3706 7.26338 20.7739 6.11138 20.7739C4.50338 20.7739 3.17672 20.1129 2.13138 18.7909C1.08872 17.4709 0.567384 15.8119 0.567384 13.8139C0.566717 11.5539 1.01005 9.48624 1.89738 7.61091C2.78672 5.73624 4.14272 4.04124 5.96538 2.52591C7.78938 1.01191 8.95338 0.254573 9.45738 0.253906C9.79338 0.253906 10.0694 0.415906 10.2854 0.739906C10.5014 1.06324 10.6094 1.34491 10.6094 1.58491L10.5024 1.87291L10.5054 1.87391ZM23.4654 1.87391C19.5287 4.39391 17.5607 7.42991 17.5614 10.9819C17.5614 12.0866 17.7537 12.6389 18.1384 12.6389L18.5344 12.5319C18.8457 12.4119 19.0977 12.3519 19.2904 12.3519C20.3944 12.3519 21.33 12.7619 22.0974 13.5819C22.8661 14.4006 23.2501 15.4126 23.2494 16.6179C23.2487 17.7752 22.8404 18.7576 22.0244 19.5649C21.2084 20.3716 20.2244 20.7749 19.0724 20.7749C17.4644 20.7749 16.1377 20.1139 15.0924 18.7919C14.0497 17.4719 13.5284 15.8129 13.5284 13.8149C13.5271 11.5309 13.9771 9.44557 14.8784 7.55891C15.7784 5.67157 17.1341 3.98257 18.9454 2.49191C20.76 1.00057 21.9184 0.254907 22.4204 0.254907C22.757 0.254907 23.0337 0.416906 23.2504 0.740906C23.4657 1.06491 23.5734 1.34691 23.5734 1.58691L23.4654 1.87391Z" fill="#22C55E"/>
</svg>
