<svg width="249" height="15" viewBox="0 0 249 15" fill="none" xmlns="http://www.w3.org/2000/svg">
<path d="M0.469727 14.48H14.4697V0.48H0.469727V14.48ZM19.1627 13.5V3.56H24.9587V4.792H20.4647V7.802H24.1187V9.034H20.4647V12.268H24.9587V13.5H19.1627ZM28.874 13.64C28.23 13.64 27.6653 13.5047 27.18 13.234C26.6946 12.954 26.3446 12.548 26.13 12.016L27.11 11.47C27.2406 11.8153 27.4693 12.086 27.796 12.282C28.1226 12.478 28.4866 12.576 28.888 12.576C29.2333 12.576 29.5226 12.492 29.756 12.324C29.9893 12.156 30.106 11.9273 30.106 11.638C30.106 11.386 30.0126 11.176 29.826 11.008C29.6486 10.84 29.336 10.686 28.888 10.546L28.188 10.322C27.0213 9.986 26.438 9.30467 26.438 8.278C26.438 7.69933 26.6666 7.23733 27.124 6.892C27.5906 6.53733 28.1646 6.36 28.846 6.36C29.91 6.36 30.68 6.766 31.156 7.578L30.26 8.194C29.8773 7.662 29.392 7.396 28.804 7.396C28.4866 7.396 28.2113 7.47533 27.978 7.634C27.754 7.78333 27.642 7.984 27.642 8.236C27.642 8.46933 27.712 8.67 27.852 8.838C28.0013 8.99667 28.2626 9.132 28.636 9.244L29.406 9.482C30.6753 9.874 31.31 10.56 31.31 11.54C31.31 12.1933 31.0813 12.7067 30.624 13.08C30.176 13.4533 29.5926 13.64 28.874 13.64ZM36.1847 13.64C35.13 13.64 34.2527 13.29 33.5527 12.59C32.862 11.89 32.5167 11.0267 32.5167 10C32.5167 8.97333 32.862 8.11 33.5527 7.41C34.2527 6.71 35.13 6.36 36.1847 6.36C36.894 6.36 37.5287 6.528 38.0887 6.864C38.658 7.2 39.1014 7.65733 39.4187 8.236L38.3687 8.824C38.1634 8.41333 37.8694 8.08667 37.4867 7.844C37.1134 7.60133 36.6794 7.48 36.1847 7.48C35.466 7.48 34.878 7.72267 34.4207 8.208C33.9634 8.69333 33.7347 9.29067 33.7347 10C33.7347 10.7093 33.9634 11.3067 34.4207 11.792C34.878 12.2773 35.466 12.52 36.1847 12.52C36.6794 12.52 37.1134 12.3987 37.4867 12.156C37.8694 11.9133 38.1634 11.5867 38.3687 11.176L39.4187 11.764C39.1014 12.3427 38.658 12.8 38.0887 13.136C37.5287 13.472 36.894 13.64 36.1847 13.64ZM40.9787 13.5V6.5H42.1827V7.858C42.3134 7.42867 42.5654 7.08333 42.9387 6.822C43.3214 6.56067 43.7227 6.43 44.1427 6.43C44.3481 6.43 44.5301 6.44867 44.6887 6.486V7.732C44.5207 7.65733 44.3014 7.62 44.0307 7.62C43.5454 7.62 43.1161 7.83 42.7427 8.25C42.3694 8.67 42.1827 9.26267 42.1827 10.028V13.5H40.9787ZM48.9676 13.64C47.9129 13.64 47.0356 13.29 46.3356 12.59C45.6449 11.8807 45.2996 11.0173 45.2996 10C45.2996 8.98267 45.6449 8.124 46.3356 7.424C47.0356 6.71467 47.9129 6.36 48.9676 6.36C50.0129 6.36 50.8809 6.71467 51.5716 7.424C52.2716 8.124 52.6216 8.98267 52.6216 10C52.6216 11.0173 52.2716 11.8807 51.5716 12.59C50.8809 13.29 50.0129 13.64 48.9676 13.64ZM47.2036 11.792C47.6609 12.2773 48.2489 12.52 48.9676 12.52C49.6863 12.52 50.2696 12.2773 50.7176 11.792C51.1656 11.3067 51.3896 10.7093 51.3896 10C51.3896 9.29067 51.1656 8.69333 50.7176 8.208C50.2696 7.72267 49.6863 7.48 48.9676 7.48C48.2489 7.48 47.6609 7.72267 47.2036 8.208C46.7556 8.69333 46.5316 9.29067 46.5316 10C46.5316 10.7093 46.7556 11.3067 47.2036 11.792ZM60.2585 13.5L58.5225 8.474L56.8005 13.5H55.7365L53.3565 6.5H54.6165L56.3105 11.61L58.0605 6.5H58.9845L60.7345 11.61L62.4285 6.5H63.7025L61.3225 13.5H60.2585ZM73.8151 4.456C74.4497 5.05333 74.7671 5.80933 74.7671 6.724C74.7671 7.63867 74.4497 8.39467 73.8151 8.992C73.1897 9.58 72.3684 9.874 71.3511 9.874H69.6151V13.5H68.3131V3.56H71.3511C72.3684 3.56 73.1897 3.85867 73.8151 4.456ZM72.9051 8.124C73.2877 7.76 73.4791 7.29333 73.4791 6.724C73.4791 6.15467 73.2877 5.688 72.9051 5.324C72.5317 4.96 72.0137 4.778 71.3511 4.778H69.6151V8.67H71.3511C72.0137 8.67 72.5317 8.488 72.9051 8.124ZM76.2385 13.5V6.5H77.4425V7.858C77.5732 7.42867 77.8252 7.08333 78.1985 6.822C78.5812 6.56067 78.9825 6.43 79.4025 6.43C79.6078 6.43 79.7898 6.44867 79.9485 6.486V7.732C79.7805 7.65733 79.5612 7.62 79.2905 7.62C78.8052 7.62 78.3758 7.83 78.0025 8.25C77.6292 8.67 77.4425 9.26267 77.4425 10.028V13.5H76.2385ZM84.2274 13.64C83.1727 13.64 82.2954 13.29 81.5954 12.59C80.9047 11.8807 80.5594 11.0173 80.5594 10C80.5594 8.98267 80.9047 8.124 81.5954 7.424C82.2954 6.71467 83.1727 6.36 84.2274 6.36C85.2727 6.36 86.1407 6.71467 86.8314 7.424C87.5314 8.124 87.8814 8.98267 87.8814 10C87.8814 11.0173 87.5314 11.8807 86.8314 12.59C86.1407 13.29 85.2727 13.64 84.2274 13.64ZM82.4634 11.792C82.9207 12.2773 83.5087 12.52 84.2274 12.52C84.946 12.52 85.5294 12.2773 85.9774 11.792C86.4254 11.3067 86.6494 10.7093 86.6494 10C86.6494 9.29067 86.4254 8.69333 85.9774 8.208C85.5294 7.72267 84.946 7.48 84.2274 7.48C83.5087 7.48 82.9207 7.72267 82.4634 8.208C82.0154 8.69333 81.7914 9.29067 81.7914 10C81.7914 10.7093 82.0154 11.3067 82.4634 11.792ZM92.2025 13.57C91.5585 13.57 91.0405 13.388 90.6485 13.024C90.2565 12.66 90.0605 12.128 90.0605 11.428V7.606H88.5765V6.5H90.0605V4.554H91.2645V6.5H93.2805V7.606H91.2645V11.274C91.2645 11.7127 91.3579 12.0207 91.5445 12.198C91.7312 12.3753 92.0252 12.464 92.4265 12.464C92.7812 12.464 93.0659 12.4173 93.2805 12.324V13.402C92.9445 13.514 92.5852 13.57 92.2025 13.57ZM97.8029 13.64C96.7295 13.64 95.8569 13.2947 95.1849 12.604C94.5129 11.9133 94.1769 11.0453 94.1769 10C94.1769 8.964 94.5175 8.10067 95.1989 7.41C95.8802 6.71 96.7529 6.36 97.8169 6.36C98.7595 6.36 99.5482 6.67733 100.183 7.312C100.827 7.93733 101.149 8.79133 101.149 9.874C101.149 10.014 101.144 10.1353 101.135 10.238H95.3949C95.4135 10.8913 95.6469 11.4373 96.0949 11.876C96.5522 12.3147 97.1262 12.534 97.8169 12.534C98.7969 12.534 99.5249 12.128 100.001 11.316L100.953 11.974C100.272 13.0847 99.2215 13.64 97.8029 13.64ZM95.4789 9.258H99.9169C99.8235 8.698 99.5762 8.25467 99.1749 7.928C98.7829 7.592 98.3162 7.424 97.7749 7.424C97.2242 7.424 96.7295 7.592 96.2909 7.928C95.8615 8.25467 95.5909 8.698 95.4789 9.258ZM105.98 13.64C104.925 13.64 104.048 13.29 103.348 12.59C102.657 11.89 102.312 11.0267 102.312 10C102.312 8.97333 102.657 8.11 103.348 7.41C104.048 6.71 104.925 6.36 105.98 6.36C106.689 6.36 107.324 6.528 107.884 6.864C108.453 7.2 108.896 7.65733 109.214 8.236L108.164 8.824C107.958 8.41333 107.664 8.08667 107.282 7.844C106.908 7.60133 106.474 7.48 105.98 7.48C105.261 7.48 104.673 7.72267 104.216 8.208C103.758 8.69333 103.53 9.29067 103.53 10C103.53 10.7093 103.758 11.3067 104.216 11.792C104.673 12.2773 105.261 12.52 105.98 12.52C106.474 12.52 106.908 12.3987 107.282 12.156C107.664 11.9133 107.958 11.5867 108.164 11.176L109.214 11.764C108.896 12.3427 108.453 12.8 107.884 13.136C107.324 13.472 106.689 13.64 105.98 13.64ZM113.49 13.57C112.846 13.57 112.328 13.388 111.936 13.024C111.544 12.66 111.348 12.128 111.348 11.428V7.606H109.864V6.5H111.348V4.554H112.552V6.5H114.568V7.606H112.552V11.274C112.552 11.7127 112.645 12.0207 112.832 12.198C113.018 12.3753 113.312 12.464 113.714 12.464C114.068 12.464 114.353 12.4173 114.568 12.324V13.402C114.232 13.514 113.872 13.57 113.49 13.57ZM119.09 13.64C118.017 13.64 117.144 13.2947 116.472 12.604C115.8 11.9133 115.464 11.0453 115.464 10C115.464 8.964 115.805 8.10067 116.486 7.41C117.167 6.71 118.04 6.36 119.104 6.36C120.047 6.36 120.835 6.67733 121.47 7.312C122.114 7.93733 122.436 8.79133 122.436 9.874C122.436 10.014 122.431 10.1353 122.422 10.238H116.682C116.701 10.8913 116.934 11.4373 117.382 11.876C117.839 12.3147 118.413 12.534 119.104 12.534C120.084 12.534 120.812 12.128 121.288 11.316L122.24 11.974C121.559 13.0847 120.509 13.64 119.09 13.64ZM116.766 9.258H121.204C121.111 8.698 120.863 8.25467 120.462 7.928C120.07 7.592 119.603 7.424 119.062 7.424C118.511 7.424 118.017 7.592 117.578 7.928C117.149 8.25467 116.878 8.698 116.766 9.258ZM127.029 13.64C126.058 13.64 125.241 13.2853 124.579 12.576C123.925 11.8667 123.599 11.008 123.599 10C123.599 8.992 123.925 8.13333 124.579 7.424C125.241 6.71467 126.058 6.36 127.029 6.36C127.542 6.36 128.018 6.47667 128.457 6.71C128.905 6.934 129.25 7.22333 129.493 7.578V3H130.697V13.5H129.493V12.422C129.25 12.7767 128.905 13.0707 128.457 13.304C128.018 13.528 127.542 13.64 127.029 13.64ZM127.211 12.534C127.901 12.534 128.471 12.2913 128.919 11.806C129.367 11.3207 129.591 10.7187 129.591 10C129.591 9.28133 129.367 8.67933 128.919 8.194C128.471 7.70867 127.901 7.466 127.211 7.466C126.511 7.466 125.937 7.70867 125.489 8.194C125.041 8.67933 124.817 9.28133 124.817 10C124.817 10.7187 125.041 11.3207 125.489 11.806C125.937 12.2913 126.511 12.534 127.211 12.534ZM138.132 11.176C137.609 11.176 137.161 10.994 136.788 10.63C136.415 10.2567 136.228 9.804 136.228 9.272C136.228 8.74 136.415 8.292 136.788 7.928C137.161 7.55467 137.609 7.368 138.132 7.368C138.664 7.368 139.117 7.55467 139.49 7.928C139.863 8.292 140.05 8.74 140.05 9.272C140.05 9.804 139.863 10.2567 139.49 10.63C139.117 10.994 138.664 11.176 138.132 11.176ZM148.438 13.668C147.645 13.668 146.931 13.5 146.296 13.164C145.671 12.828 145.223 12.3987 144.952 11.876L146.002 11.092C146.59 11.9973 147.412 12.45 148.466 12.45C148.998 12.45 149.437 12.3193 149.782 12.058C150.128 11.7873 150.3 11.4233 150.3 10.966C150.3 10.2007 149.824 9.64067 148.872 9.286L147.556 8.782C146.772 8.49267 146.198 8.13333 145.834 7.704C145.48 7.26533 145.302 6.71 145.302 6.038C145.302 5.23533 145.592 4.596 146.17 4.12C146.758 3.63467 147.505 3.392 148.41 3.392C149.017 3.392 149.572 3.518 150.076 3.77C150.58 4.01267 150.991 4.33933 151.308 4.75L150.356 5.59C149.806 4.93667 149.148 4.61 148.382 4.61C147.878 4.61 147.454 4.74067 147.108 5.002C146.763 5.254 146.59 5.58067 146.59 5.982C146.59 6.38333 146.707 6.70067 146.94 6.934C147.174 7.16733 147.556 7.382 148.088 7.578L149.292 8.04C150.058 8.32933 150.632 8.70267 151.014 9.16C151.406 9.61733 151.602 10.2007 151.602 10.91C151.602 11.7407 151.304 12.408 150.706 12.912C150.118 13.416 149.362 13.668 148.438 13.668ZM156.414 13.64C155.341 13.64 154.468 13.2947 153.796 12.604C153.124 11.9133 152.788 11.0453 152.788 10C152.788 8.964 153.129 8.10067 153.81 7.41C154.492 6.71 155.364 6.36 156.428 6.36C157.371 6.36 158.16 6.67733 158.794 7.312C159.438 7.93733 159.76 8.79133 159.76 9.874C159.76 10.014 159.756 10.1353 159.746 10.238H154.006C154.025 10.8913 154.258 11.4373 154.706 11.876C155.164 12.3147 155.738 12.534 156.428 12.534C157.408 12.534 158.136 12.128 158.612 11.316L159.564 11.974C158.883 13.0847 157.833 13.64 156.414 13.64ZM154.09 9.258H158.528C158.435 8.698 158.188 8.25467 157.786 7.928C157.394 7.592 156.928 7.424 156.386 7.424C155.836 7.424 155.341 7.592 154.902 7.928C154.473 8.25467 154.202 8.698 154.09 9.258ZM164.591 13.64C163.536 13.64 162.659 13.29 161.959 12.59C161.268 11.89 160.923 11.0267 160.923 10C160.923 8.97333 161.268 8.11 161.959 7.41C162.659 6.71 163.536 6.36 164.591 6.36C165.3 6.36 165.935 6.528 166.495 6.864C167.064 7.2 167.508 7.65733 167.825 8.236L166.775 8.824C166.57 8.41333 166.276 8.08667 165.893 7.844C165.52 7.60133 165.086 7.48 164.591 7.48C163.872 7.48 163.284 7.72267 162.827 8.208C162.37 8.69333 162.141 9.29067 162.141 10C162.141 10.7093 162.37 11.3067 162.827 11.792C163.284 12.2773 163.872 12.52 164.591 12.52C165.086 12.52 165.52 12.3987 165.893 12.156C166.276 11.9133 166.57 11.5867 166.775 11.176L167.825 11.764C167.508 12.3427 167.064 12.8 166.495 13.136C165.935 13.472 165.3 13.64 164.591 13.64ZM171.863 13.64C171.098 13.64 170.477 13.3833 170.001 12.87C169.525 12.3473 169.287 11.6567 169.287 10.798V6.5H170.491V10.616C170.491 11.204 170.631 11.6707 170.911 12.016C171.2 12.3613 171.588 12.534 172.073 12.534C172.633 12.534 173.095 12.3053 173.459 11.848C173.832 11.3813 174.019 10.756 174.019 9.972V6.5H175.223V13.5H174.019V12.422C173.562 13.234 172.843 13.64 171.863 13.64ZM177.492 13.5V6.5H178.696V7.858C178.827 7.42867 179.079 7.08333 179.452 6.822C179.835 6.56067 180.236 6.43 180.656 6.43C180.862 6.43 181.044 6.44867 181.202 6.486V7.732C181.034 7.65733 180.815 7.62 180.544 7.62C180.059 7.62 179.63 7.83 179.256 8.25C178.883 8.67 178.696 9.26267 178.696 10.028V13.5H177.492ZM185.453 13.64C184.38 13.64 183.507 13.2947 182.835 12.604C182.163 11.9133 181.827 11.0453 181.827 10C181.827 8.964 182.168 8.10067 182.849 7.41C183.531 6.71 184.403 6.36 185.467 6.36C186.41 6.36 187.199 6.67733 187.833 7.312C188.477 7.93733 188.799 8.79133 188.799 9.874C188.799 10.014 188.795 10.1353 188.785 10.238H183.045C183.064 10.8913 183.297 11.4373 183.745 11.876C184.203 12.3147 184.777 12.534 185.467 12.534C186.447 12.534 187.175 12.128 187.651 11.316L188.603 11.974C187.922 13.0847 186.872 13.64 185.453 13.64ZM183.129 9.258H187.567C187.474 8.698 187.227 8.25467 186.825 7.928C186.433 7.592 185.967 7.424 185.425 7.424C184.875 7.424 184.38 7.592 183.941 7.928C183.512 8.25467 183.241 8.698 183.129 9.258ZM199.569 4.456C200.204 5.05333 200.521 5.80933 200.521 6.724C200.521 7.63867 200.204 8.39467 199.569 8.992C198.944 9.58 198.122 9.874 197.105 9.874H195.369V13.5H194.067V3.56H197.105C198.122 3.56 198.944 3.85867 199.569 4.456ZM198.659 8.124C199.042 7.76 199.233 7.29333 199.233 6.724C199.233 6.15467 199.042 5.688 198.659 5.324C198.286 4.96 197.768 4.778 197.105 4.778H195.369V8.67H197.105C197.768 8.67 198.286 8.488 198.659 8.124ZM202.061 13.5V3H203.265V13.5H202.061ZM208.431 13.64C207.46 13.64 206.644 13.2853 205.981 12.576C205.328 11.8667 205.001 11.008 205.001 10C205.001 8.992 205.328 8.13333 205.981 7.424C206.644 6.71467 207.46 6.36 208.431 6.36C208.944 6.36 209.42 6.47667 209.859 6.71C210.307 6.934 210.652 7.22333 210.895 7.578V6.5H212.099V13.5H210.895V12.422C210.652 12.7767 210.307 13.0707 209.859 13.304C209.42 13.528 208.944 13.64 208.431 13.64ZM208.613 12.534C209.304 12.534 209.873 12.2913 210.321 11.806C210.769 11.3207 210.993 10.7187 210.993 10C210.993 9.28133 210.769 8.67933 210.321 8.194C209.873 7.70867 209.304 7.466 208.613 7.466C207.913 7.466 207.339 7.70867 206.891 8.194C206.443 8.67933 206.219 9.28133 206.219 10C206.219 10.7187 206.443 11.3207 206.891 11.806C207.339 12.2913 207.913 12.534 208.613 12.534ZM217.081 13.57C216.437 13.57 215.919 13.388 215.527 13.024C215.135 12.66 214.939 12.128 214.939 11.428V7.606H213.455V6.5H214.939V4.554H216.143V6.5H218.159V7.606H216.143V11.274C216.143 11.7127 216.237 12.0207 216.423 12.198C216.61 12.3753 216.904 12.464 217.305 12.464C217.66 12.464 217.945 12.4173 218.159 12.324V13.402C217.823 13.514 217.464 13.57 217.081 13.57ZM220.285 13.5V7.606H218.801V6.5H220.285V5.086C220.285 4.386 220.481 3.84933 220.873 3.476C221.265 3.10267 221.783 2.916 222.427 2.916C222.81 2.916 223.174 2.97667 223.519 3.098V4.162C223.305 4.06867 223.015 4.022 222.651 4.022C222.25 4.022 221.956 4.11067 221.769 4.288C221.583 4.46533 221.489 4.77333 221.489 5.212V6.5H223.519V7.606H221.489V13.5H220.285ZM227.768 13.64C226.714 13.64 225.836 13.29 225.136 12.59C224.446 11.8807 224.1 11.0173 224.1 10C224.1 8.98267 224.446 8.124 225.136 7.424C225.836 6.71467 226.714 6.36 227.768 6.36C228.814 6.36 229.682 6.71467 230.372 7.424C231.072 8.124 231.422 8.98267 231.422 10C231.422 11.0173 231.072 11.8807 230.372 12.59C229.682 13.29 228.814 13.64 227.768 13.64ZM226.004 11.792C226.462 12.2773 227.05 12.52 227.768 12.52C228.487 12.52 229.07 12.2773 229.518 11.792C229.966 11.3067 230.19 10.7093 230.19 10C230.19 9.29067 229.966 8.69333 229.518 8.208C229.07 7.72267 228.487 7.48 227.768 7.48C227.05 7.48 226.462 7.72267 226.004 8.208C225.556 8.69333 225.332 9.29067 225.332 10C225.332 10.7093 225.556 11.3067 226.004 11.792ZM233.151 13.5V6.5H234.355V7.858C234.485 7.42867 234.737 7.08333 235.111 6.822C235.493 6.56067 235.895 6.43 236.315 6.43C236.52 6.43 236.702 6.44867 236.861 6.486V7.732C236.693 7.65733 236.473 7.62 236.203 7.62C235.717 7.62 235.288 7.83 234.915 8.25C234.541 8.67 234.355 9.26267 234.355 10.028V13.5H233.151ZM247.294 13.5V9.384C247.294 8.80533 247.172 8.34333 246.93 7.998C246.696 7.64333 246.356 7.466 245.908 7.466C245.348 7.466 244.89 7.68533 244.536 8.124C244.19 8.56267 244.008 9.16 243.99 9.916V13.5H242.786V9.384C242.786 8.796 242.664 8.32933 242.422 7.984C242.188 7.63867 241.852 7.466 241.414 7.466C240.835 7.466 240.368 7.69933 240.014 8.166C239.659 8.62333 239.482 9.244 239.482 10.028V13.5H238.278V6.5H239.482V7.578C239.93 6.766 240.634 6.36 241.596 6.36C242.66 6.36 243.378 6.85933 243.752 7.858C243.938 7.40067 244.237 7.03667 244.648 6.766C245.058 6.49533 245.525 6.36 246.048 6.36C246.804 6.36 247.401 6.61667 247.84 7.13C248.278 7.64333 248.498 8.334 248.498 9.202V13.5H247.294Z" fill="#4B5563"/>
</svg>
