<svg width="168" height="159" viewBox="0 0 168 159" fill="none" xmlns="http://www.w3.org/2000/svg">
<path d="M135.624 11.3714C133.899 10.4276 133.113 11.2129 132.483 10.4276C131.852 9.64228 134.212 7.59974 129.5 5.56088C129.5 5.56088 129.187 1.16241 122.746 1.00388C116.305 0.845338 118.034 5.41341 116.294 6.5121C114.553 7.6108 114.082 5.88533 112.367 6.98403C110.653 8.08272 111.423 10.3022 110.011 10.5972C108.599 10.8921 106.711 9.18142 104.986 10.2838C103.26 11.3862 103.257 12.3227 102.471 12.3227C101.686 12.3227 100.116 11.6959 99.1754 12.3227C98.2352 12.9494 97.1328 13.7384 97.1328 13.7384H136.881C136.881 13.7384 137.353 12.3227 135.624 11.3714Z" stroke="#263238" stroke-linecap="round" stroke-linejoin="round"/>
<path d="M112.12 10.7379C111.895 10.864 111.661 10.9749 111.42 11.0697" stroke="#263238" stroke-linecap="round" stroke-linejoin="round"/>
<path d="M120.623 3.40042C120.233 3.57469 119.89 3.83959 119.624 4.17308C119.357 4.50656 119.174 4.89897 119.089 5.31761C118.802 6.7555 118.131 7.71409 117.364 7.80995C116.597 7.90581 113.721 7.61824 113.242 8.67269C113.114 8.98156 113.024 9.30462 112.973 9.63497" stroke="#263238" stroke-linecap="round" stroke-linejoin="round"/>
<path d="M115.479 22.6719C114.572 22.1778 114.163 22.5907 113.831 22.1778C113.5 21.7649 114.738 20.7031 112.268 19.6265C112.268 19.6265 112.102 17.3185 108.729 17.2374C105.355 17.1563 106.259 19.5417 105.352 20.1205C104.445 20.6994 104.198 19.7887 103.294 20.3675C102.391 20.9464 102.8 22.0967 102.059 22.2589C101.318 22.4212 100.326 21.5215 99.423 22.0967C98.5197 22.6719 98.516 23.1659 98.1031 23.1659C97.6901 23.1659 96.8679 22.8378 96.3739 23.1659C95.8798 23.494 95.3047 23.9033 95.3047 23.9033H116.139C116.139 23.9033 116.386 23.1696 115.479 22.6719Z" stroke="#263238" stroke-linecap="round" stroke-linejoin="round"/>
<path d="M103.154 22.3327C103.036 22.4006 102.913 22.4586 102.785 22.506" stroke="#263238" stroke-linecap="round" stroke-linejoin="round"/>
<path d="M107.611 18.4874C107.408 18.5778 107.229 18.7152 107.089 18.8883C106.949 19.0613 106.853 19.2651 106.807 19.4828C106.656 20.2202 106.306 20.7401 105.904 20.7917C105.502 20.8433 103.994 20.6921 103.743 21.2452C103.676 21.406 103.628 21.5744 103.6 21.7466" stroke="#263238" stroke-linecap="round" stroke-linejoin="round"/>
<path d="M11.0624 57.6423C11.0624 57.6423 27.6535 59.2829 36.0486 69.562C36.0486 69.562 44.9267 57.6533 60.8763 57.9003C64.7716 53.1994 67.2515 47.4887 68.0273 41.4331C68.8031 35.3774 67.8429 29.226 65.2584 23.6949C62.6738 18.1639 58.5714 13.4807 53.4286 10.1907C48.2858 6.90061 42.3143 5.13904 36.2092 5.11103C30.1041 5.08301 24.1166 6.78971 18.9439 10.0324C13.7711 13.2751 9.62586 17.9205 6.99068 23.4276C4.3555 28.9347 3.33883 35.0771 4.05902 41.1396C4.77921 47.2021 7.20664 52.9353 11.0587 57.6717L11.0624 57.6423Z" fill="#92E3A9"/>
<path opacity="0.5" d="M11.0624 57.6423C11.0624 57.6423 27.6535 59.2829 36.0486 69.562C36.0486 69.562 44.9267 57.6533 60.8763 57.9003C64.7716 53.1994 67.2515 47.4887 68.0273 41.4331C68.8031 35.3774 67.8429 29.226 65.2584 23.6949C62.6738 18.1639 58.5714 13.4807 53.4286 10.1907C48.2858 6.90061 42.3143 5.13904 36.2092 5.11103C30.1041 5.08301 24.1166 6.78971 18.9439 10.0324C13.7711 13.2751 9.62586 17.9205 6.99068 23.4276C4.3555 28.9347 3.33883 35.0771 4.05902 41.1396C4.77921 47.2021 7.20664 52.9353 11.0587 57.6717L11.0624 57.6423Z" fill="white"/>
<path d="M35.4999 7.37555L34.9395 134.146H37.7415L35.4999 7.37555Z" fill="#263238"/>
<path d="M36.3408 66.4283C36.3408 66.4283 41.9375 56.3557 52.0138 53.2771C52.0138 53.2771 41.3771 55.7953 36.0605 64.4706L36.3408 66.4283Z" fill="#263238"/>
<path d="M36.3408 37.8841C36.3408 37.8841 41.9375 27.8078 52.0138 24.7292C52.0138 24.7292 41.3771 27.2474 36.0605 35.9227L36.3408 37.8841Z" fill="#263238"/>
<path d="M36.3408 52.1557C36.3408 52.1557 41.9375 42.0794 52.0138 39.0008C52.0138 39.0008 41.3771 41.519 36.0605 50.1979L36.3408 52.1557Z" fill="#263238"/>
<path d="M35.5109 45.1589C35.5109 45.1589 30.1095 35.0827 20.3945 32.0041C20.3945 32.0041 30.6589 34.5259 35.7874 43.2012L35.5109 45.1589Z" fill="#263238"/>
<path d="M35.5109 59.1543C35.5109 59.1543 30.1095 49.078 20.3945 45.9995C20.3945 45.9995 30.6589 48.5176 35.7874 57.1929L35.5109 59.1543Z" fill="#263238"/>
<path d="M117.695 68.4933C117.695 68.4933 131.926 69.9017 139.138 78.7245C139.138 78.7245 146.755 68.5044 160.441 68.7145C163.782 64.6807 165.909 59.7808 166.574 54.5852C167.239 49.3896 166.415 44.1119 164.197 39.3666C161.979 34.6213 158.459 30.6036 154.046 27.781C149.634 24.9585 144.51 23.4473 139.272 23.4234C134.034 23.3994 128.897 24.8637 124.459 27.6458C120.021 30.4279 116.464 34.4133 114.203 39.1381C111.942 43.8629 111.069 49.1328 111.687 54.3343C112.304 59.5358 114.387 64.455 117.691 68.5191L117.695 68.4933Z" fill="#92E3A9"/>
<path opacity="0.5" d="M117.695 68.4933C117.695 68.4933 131.926 69.9017 139.138 78.7245C139.138 78.7245 146.755 68.5044 160.441 68.7145C163.782 64.6807 165.909 59.7808 166.574 54.5852C167.239 49.3896 166.415 44.1119 164.197 39.3666C161.979 34.6213 158.459 30.6036 154.046 27.781C149.634 24.9585 144.51 23.4473 139.272 23.4234C134.034 23.3994 128.897 24.8637 124.459 27.6458C120.021 30.4279 116.464 34.4133 114.203 39.1381C111.942 43.8629 111.069 49.1328 111.687 54.3343C112.304 59.5358 114.387 64.455 117.691 68.5191L117.695 68.4933Z" fill="white"/>
<path d="M138.667 25.3557L138.188 134.145H140.588L138.667 25.3557Z" fill="#263238"/>
<path d="M139.386 76.0322C139.386 76.0322 144.179 67.3864 152.836 64.7466C152.836 64.7466 143.711 66.9071 139.146 74.3326L139.386 76.0322Z" fill="#263238"/>
<path d="M139.386 51.5364C139.386 51.5364 144.179 42.8906 152.836 40.2471C152.836 40.2471 143.711 42.4077 139.146 49.8552L139.386 51.5364Z" fill="#263238"/>
<path d="M139.386 63.7843C139.386 63.7843 144.179 55.1385 152.836 52.495C152.836 52.495 143.711 54.6592 139.146 62.103L139.386 63.7843Z" fill="#263238"/>
<path d="M138.675 57.7823C138.675 57.7823 134.041 49.1329 125.697 46.493C125.697 46.493 134.505 48.6536 138.907 56.1011L138.675 57.7823Z" fill="#263238"/>
<path d="M138.675 69.7909C138.675 69.7909 134.041 61.1452 125.697 58.5016C125.697 58.5016 134.505 60.6622 138.907 68.1097L138.675 69.7909Z" fill="#263238"/>
<path d="M84.4545 134.599C84.5061 133.445 84.3512 131.259 83.0977 127.963C81.1325 122.801 77.6926 133.125 77.6926 133.125C77.6926 133.125 77.6926 131.897 74.0057 127.963C70.3188 124.029 67.1223 130.912 67.1223 130.912C67.1223 130.912 68.8441 114.447 64.6631 115.674C60.4821 116.902 60.9762 130.912 60.9762 130.912C60.9762 130.912 58.0267 120.589 54.0964 120.589C50.1662 120.589 49.1781 127.963 49.1781 127.963C49.1781 127.963 48.1974 114.937 44.2634 114.69C40.3295 114.443 35.9199 125.507 35.9199 125.507C35.9199 125.507 37.1514 110.76 33.2174 110.022C29.2835 109.285 27.8087 115.427 27.8087 115.427C27.8087 115.427 24.3688 95.0278 17.7324 97.487C11.0959 99.9461 16.748 122.558 16.748 122.558C16.748 122.558 10.1115 106.826 4.69178 110.513C-0.211813 113.868 6.03013 131.432 7.20994 134.599H84.4545Z" fill="#92E3A9"/>
<path d="M5.18262 135.094C5.18262 135.094 2.23309 125.751 3.70786 124.276C5.18262 122.802 11.5868 129.195 11.5868 129.195C11.5868 129.195 6.91916 113.463 14.293 111.497C21.6668 109.532 22.8798 126.735 22.8798 126.735C22.8798 126.735 28.2885 118.871 29.5162 121.821C30.263 123.616 30.6837 125.53 30.7587 127.473C30.7587 127.473 33.4649 106.089 39.6073 107.073C45.7497 108.058 40.1014 129.195 40.1014 129.195C40.1014 129.195 43.5413 121.821 47.4752 122.558C51.4091 123.296 52.8802 127.963 52.8802 127.963C52.8802 127.963 54.602 123.786 55.8297 123.786C57.0575 123.786 58.5359 131.16 58.5359 131.16C58.5359 131.16 60.0107 119.852 62.7132 120.346C65.4157 120.84 71.0567 130.422 71.0567 130.422C71.0567 130.422 70.0723 125.014 73.0218 124.77C75.9713 124.527 77.6931 133.125 77.6931 133.125C77.6931 133.125 81.6234 125.014 84.0825 126.488C86.5417 127.963 85.325 135.831 85.325 135.831" stroke="#263238" stroke-linecap="round" stroke-linejoin="round"/>
<path d="M18.7033 135.093L16.2441 124.032" stroke="#263238" stroke-linecap="round" stroke-linejoin="round"/>
<path d="M33.6934 134.599L34.9248 127.719" stroke="#263238" stroke-linecap="round" stroke-linejoin="round"/>
<path d="M65.3996 135.093L63.1875 128.947" stroke="#263238" stroke-linecap="round" stroke-linejoin="round"/>
<path d="M45.7383 134.846L48.4408 129.932" stroke="#263238" stroke-linecap="round" stroke-linejoin="round"/>
<path d="M17.9648 130.422L19.93 126.488" stroke="#263238" stroke-linecap="round" stroke-linejoin="round"/>
<path d="M33.6927 132.387L31.9746 128.947" stroke="#263238" stroke-linecap="round" stroke-linejoin="round"/>
<path d="M46.966 132.144L45.7383 129.932" stroke="#263238" stroke-linecap="round" stroke-linejoin="round"/>
<path d="M64.4199 131.896L65.1573 129.437" stroke="#263238" stroke-linecap="round" stroke-linejoin="round"/>
<path d="M159.881 134.599C159.932 133.445 159.778 131.259 158.524 127.963C156.559 122.801 153.119 133.125 153.119 133.125C153.119 133.125 153.119 131.897 149.432 127.963C145.745 124.029 142.549 130.912 142.549 130.912C142.549 130.912 144.27 114.447 140.089 115.674C135.908 116.902 136.403 130.912 136.403 130.912C136.403 130.912 133.453 120.589 129.523 120.589C125.592 120.589 124.604 127.963 124.604 127.963C124.604 127.963 123.624 114.937 119.69 114.69C115.756 114.443 111.332 125.507 111.332 125.507C111.332 125.507 112.563 110.76 108.629 110.022C104.695 109.285 103.22 115.427 103.22 115.427C103.22 115.427 99.7804 95.0278 93.144 97.487C86.5075 99.9461 92.1596 122.558 92.1596 122.558C92.1596 122.558 85.5231 106.826 80.1181 110.513C75.1998 113.864 81.4564 131.432 82.6363 134.599H159.881Z" fill="#92E3A9"/>
<path d="M80.6084 135.094C80.6084 135.094 77.6589 125.751 79.1336 124.276C80.6084 122.802 86.9978 129.195 86.9978 129.195C86.9978 129.195 82.3302 113.463 89.704 111.497C97.0778 109.532 98.3056 126.735 98.3056 126.735C98.3056 126.735 103.714 118.871 104.942 121.821C105.684 123.617 106.099 125.531 106.17 127.473C106.17 127.473 108.876 106.089 115.018 107.073C121.161 108.058 115.512 129.195 115.512 129.195C115.512 129.195 118.952 121.821 122.886 122.558C126.82 123.296 128.291 127.963 128.291 127.963C128.291 127.963 130.013 123.786 131.241 123.786C132.469 123.786 133.947 131.16 133.947 131.16C133.947 131.16 135.422 119.852 138.124 120.346C140.827 120.84 146.482 130.422 146.482 130.422C146.482 130.422 145.498 125.014 148.448 124.77C151.397 124.527 153.119 133.125 153.119 133.125C153.119 133.125 157.049 125.014 159.508 126.488C161.967 127.963 160.736 135.831 160.736 135.831" stroke="#263238" stroke-linecap="round" stroke-linejoin="round"/>
<path d="M94.1291 135.093L91.6699 124.032" stroke="#263238" stroke-linecap="round" stroke-linejoin="round"/>
<path d="M109.119 134.599L110.351 127.719" stroke="#263238" stroke-linecap="round" stroke-linejoin="round"/>
<path d="M140.827 135.093L138.615 128.947" stroke="#263238" stroke-linecap="round" stroke-linejoin="round"/>
<path d="M121.166 134.846L123.869 129.932" stroke="#263238" stroke-linecap="round" stroke-linejoin="round"/>
<path d="M93.3906 130.422L95.3557 126.488" stroke="#263238" stroke-linecap="round" stroke-linejoin="round"/>
<path d="M109.12 132.387L107.402 128.947" stroke="#263238" stroke-linecap="round" stroke-linejoin="round"/>
<path d="M122.394 132.144L121.166 129.932" stroke="#263238" stroke-linecap="round" stroke-linejoin="round"/>
<path d="M139.846 131.896L140.583 129.437" stroke="#263238" stroke-linecap="round" stroke-linejoin="round"/>
<path d="M79.5688 107.164H75.4727V135.83H79.5688V107.164Z" fill="#CCCCCC" stroke="#263238" stroke-linecap="round" stroke-linejoin="round"/>
<path d="M83.0786 107.164H78.9824V135.83H83.0786V107.164Z" fill="white" stroke="#263238" stroke-linecap="round" stroke-linejoin="round"/>
<path d="M123.442 107.164H119.346V135.83H123.442V107.164Z" fill="#CCCCCC" stroke="#263238" stroke-linecap="round" stroke-linejoin="round"/>
<path d="M126.952 107.164H122.855V135.83H126.952V107.164Z" fill="white" stroke="#263238" stroke-linecap="round" stroke-linejoin="round"/>
<path d="M148.598 107.164H144.502V135.83H148.598V107.164Z" fill="#CCCCCC" stroke="#263238" stroke-linecap="round" stroke-linejoin="round"/>
<path d="M152.108 107.164H148.012V135.83H152.108V107.164Z" fill="white" stroke="#263238" stroke-linecap="round" stroke-linejoin="round"/>
<path d="M143.334 107.164H139.238V135.83H143.334V107.164Z" fill="#CCCCCC" stroke="#263238" stroke-linecap="round" stroke-linejoin="round"/>
<path d="M146.844 107.164H142.748V135.83H146.844V107.164Z" fill="white" stroke="#263238" stroke-linecap="round" stroke-linejoin="round"/>
<path d="M161.174 107.164H157.078V135.83H161.174V107.164Z" fill="#CCCCCC" stroke="#263238" stroke-linecap="round" stroke-linejoin="round"/>
<path d="M164.684 107.164H160.588V135.83H164.684V107.164Z" fill="white" stroke="#263238" stroke-linecap="round" stroke-linejoin="round"/>
<path d="M126.789 43.8418C126.472 43.5938 126.079 43.4621 125.677 43.4688C125.274 43.4755 124.886 43.6202 124.577 43.8787L99.8418 64.4921V69.0602L125.735 47.4808L153.368 69.0123V64.5659L126.789 43.8418Z" fill="#B2B2B2" stroke="#263238" stroke-linecap="round" stroke-linejoin="round"/>
<path d="M152.038 108.794H101.262V65.5396L125.71 45.2284L152.038 65.5396V108.794Z" fill="white" stroke="#263238" stroke-linecap="round" stroke-linejoin="round"/>
<path d="M128.707 108.794H145.379V92.542L128.707 81.1347V108.794Z" fill="#CCCCCC" stroke="#263238" stroke-linecap="round" stroke-linejoin="round"/>
<path d="M126.087 108.794H75.3105V65.5396L99.7585 45.2284L126.087 65.5396V108.794Z" fill="#CCCCCC" stroke="#263238" stroke-linecap="round" stroke-linejoin="round"/>
<path d="M85.582 56.8564H113.857" stroke="#263238" stroke-linecap="round" stroke-linejoin="round"/>
<path d="M75.1816 67.0947H151.556" stroke="#263238" stroke-linecap="round" stroke-linejoin="round"/>
<path d="M75.1816 77.3302H151.792" stroke="#263238" stroke-linecap="round" stroke-linejoin="round"/>
<path d="M75.1816 87.5685H128.708" stroke="#263238" stroke-linecap="round" stroke-linejoin="round"/>
<path d="M75.1816 97.8069H128.889" stroke="#263238" stroke-linecap="round" stroke-linejoin="round"/>
<path d="M100.006 44.8592H125.958L152.902 65.6091H126.95L100.006 44.8592Z" fill="white" stroke="#263238" stroke-linecap="round" stroke-linejoin="round"/>
<path d="M107.77 50.1055H132.634" stroke="#263238" stroke-linecap="round" stroke-linejoin="round"/>
<path d="M114.719 55.3851H139.414" stroke="#263238" stroke-linecap="round" stroke-linejoin="round"/>
<path d="M121.666 60.6619H146.284" stroke="#263238" stroke-linecap="round" stroke-linejoin="round"/>
<path d="M126.919 64.1677L100.838 43.8418C100.521 43.5938 100.128 43.4621 99.7255 43.4688C99.3229 43.4755 98.9347 43.6202 98.626 43.8787L73.9863 64.411V68.9791L99.7947 47.4808L126.919 68.6178V64.1677Z" fill="#B2B2B2" stroke="#263238" stroke-linecap="round" stroke-linejoin="round"/>
<path d="M167.001 94.6026L148.035 82.4801V76.1608L167.001 88.2833V94.6026Z" fill="#B2B2B2" stroke="#263238" stroke-linecap="round" stroke-linejoin="round"/>
<path d="M144.502 108.794H165.853V92.542L144.502 81.1347V108.794Z" fill="white" stroke="#263238" stroke-linecap="round" stroke-linejoin="round"/>
<path d="M146.858 92.5567H166.745L149.18 81.1347H128.707L146.858 92.5567Z" fill="white" stroke="#263238" stroke-linecap="round" stroke-linejoin="round"/>
<path d="M146.671 94.6026L127.709 82.4801V76.1608L146.671 88.2833V94.6026Z" fill="#B2B2B2" stroke="#263238" stroke-linecap="round" stroke-linejoin="round"/>
<path d="M108.233 85.1024H90.9746V108.794H108.233V85.1024Z" fill="#263238" stroke="#263238" stroke-linecap="round" stroke-linejoin="round"/>
<path d="M108.233 61.9927H90.9746V85.6847H108.233V61.9927Z" fill="#CCCCCC" stroke="#263238" stroke-linecap="round" stroke-linejoin="round"/>
<path d="M108.233 65.2741H90.9746V68.5555H108.233V65.2741Z" fill="#B2B2B2" stroke="#263238" stroke-linecap="round" stroke-linejoin="round"/>
<path d="M90.9569 108.794H108.507L96.2587 135.83H78.709L90.9569 108.794Z" fill="white" stroke="#263238" stroke-linecap="round" stroke-linejoin="round"/>
<path d="M89.1773 112.72H106.727L105.669 115.061H88.1191L89.1773 112.72Z" fill="#CCCCCC" stroke="#263238" stroke-linecap="round" stroke-linejoin="round"/>
<path d="M85.6009 120.618H103.151L102.089 122.959H84.5391L85.6009 120.618Z" fill="#CCCCCC" stroke="#263238" stroke-linecap="round" stroke-linejoin="round"/>
<path d="M82.021 128.515H99.5707L98.5126 130.856H80.9629L82.021 128.515Z" fill="#CCCCCC" stroke="#263238" stroke-linecap="round" stroke-linejoin="round"/>
<path d="M62.8346 156.635C94.3961 156.635 119.982 153.169 119.982 148.893C119.982 144.617 94.3961 141.15 62.8346 141.15C31.2731 141.15 5.6875 144.617 5.6875 148.893C5.6875 153.169 31.2731 156.635 62.8346 156.635Z" fill="#92E3A9"/>
<path opacity="0.5" d="M62.8346 156.635C94.3961 156.635 119.982 153.169 119.982 148.893C119.982 144.617 94.3961 141.15 62.8346 141.15C31.2731 141.15 5.6875 144.617 5.6875 148.893C5.6875 153.169 31.2731 156.635 62.8346 156.635Z" fill="white"/>
<path d="M83.8507 81.7908C83.8507 81.7908 87.8326 83.402 90.8559 83.6859C93.8791 83.9698 98.532 81.7908 99.2915 77.809C100.051 73.8271 97.4886 66.3427 96.6369 64.7315C95.7853 63.1203 90.6641 51.7463 87.8215 49.2834C84.9789 46.8206 80.3334 45.3937 79.3859 45.0177C78.4383 44.6416 79.102 48.24 78.914 50.5148C78.7259 52.7897 78.7222 64.3518 78.7222 64.3518L78.0586 79.516C78.0586 79.516 81.5575 80.8359 83.8507 81.7908Z" fill="white"/>
<mask id="mask0_339_160" style="mask-type:luminance" maskUnits="userSpaceOnUse" x="78" y="44" width="22" height="40">
<path d="M83.8507 81.7916C83.8507 81.7916 87.8326 83.4028 90.8559 83.6867C93.8791 83.9706 98.532 81.7916 99.2915 77.8098C100.051 73.8279 97.4886 66.3435 96.6369 64.7323C95.7853 63.1212 90.6641 51.7471 87.8215 49.2842C84.9789 46.8214 80.3334 45.3946 79.3859 45.0185C78.4383 44.6424 79.102 48.2408 78.914 50.5157C78.7259 52.7905 78.7222 64.3526 78.7222 64.3526L78.0586 79.5168C78.0586 79.5168 81.5575 80.8367 83.8507 81.7916Z" fill="white"/>
</mask>
<g mask="url(#mask0_339_160)">
<path d="M97.3273 66.3765C96.8542 66.3143 96.3775 66.2847 95.9004 66.2881C95.2995 64.7137 94.61 63.0731 93.88 61.4951C94.1565 61.2591 94.4367 61.0342 94.7206 60.813L94.3851 60.1309C94.1049 60.3448 93.8284 60.566 93.5519 60.7946C92.5802 58.7034 91.4717 56.6786 90.2336 54.7333C90.418 54.2171 90.6023 53.7415 90.7424 53.3138C90.5765 53.0373 90.4143 52.7645 90.2521 52.5027C90.0972 52.9304 89.9166 53.4245 89.7212 53.9775C89.2923 53.338 88.7981 52.7449 88.2464 52.2078C87.6244 51.643 86.9641 51.122 86.2702 50.6482C86.4914 49.8592 86.6942 49.1599 86.8785 48.5504C86.6721 48.4029 86.4582 48.2591 86.2407 48.119C86.0564 48.72 85.8499 49.4242 85.625 50.2169C83.6661 48.9777 81.5607 47.987 79.3572 47.2673L79.1397 47.9715C81.346 48.7081 83.4516 49.7175 85.4075 50.9764C85.1199 52.0456 84.8102 53.2438 84.5115 54.5379C83.2382 53.8781 81.87 53.4204 80.4559 53.1811L80.3564 53.9185C81.7489 54.148 83.0965 54.596 84.3493 55.2458C84.0323 56.6542 83.7336 58.1621 83.4718 59.7217C82.5559 58.9707 81.5996 58.2704 80.6071 57.6238L80.2126 58.2469C81.2986 58.96 82.3414 59.7368 83.3354 60.5734C83.0958 62.1034 82.9004 63.6704 82.775 65.241C81.8875 64.5567 80.9496 63.9405 79.9693 63.3975L79.6227 64.0464C80.7089 64.6603 81.7424 65.3632 82.7123 66.148C82.646 67.2319 82.6091 68.3159 82.6238 69.3777H83.3612C83.3612 68.5149 83.3612 67.6375 83.4165 66.7526C84.0468 67.3094 84.6312 67.916 85.1641 68.5666C85.0388 69.0901 84.9319 69.5878 84.8397 70.0413L85.2932 70.1298C84.5558 71.1806 84.1023 71.8958 84.0323 72.0064L84.6553 72.3973L84.9392 71.9622L84.9614 71.9806C84.9614 71.9806 85.1236 71.8368 85.3853 71.6119V71.6931C86.2113 71.9042 87.0077 72.2175 87.756 72.6258L87.0186 72.965C80.4228 75.9625 78.7452 76.3791 78.7305 76.3828L78.8964 77.1017C78.9627 77.1017 80.6071 76.6888 87.321 73.636C87.7364 73.4492 88.1272 73.2649 88.4934 73.083C89.7274 73.871 90.688 75.0209 91.2438 76.3754H91.1959C90.4911 76.4773 89.7973 76.6451 89.1239 76.8768C86.9855 77.7101 80.4412 78.3221 80.3748 78.3295L80.4449 79.0668C80.7177 79.041 87.1588 78.4401 89.393 77.57C90.0212 77.3555 90.668 77.2 91.325 77.1054L91.4798 77.0759C91.6397 77.686 91.7191 78.3145 91.7158 78.9452C91.7166 79.3663 91.6957 79.7872 91.6531 80.2061C91.4024 80.2762 91.1554 80.3388 90.9157 80.3868C89.2824 80.6928 85.3522 81.0504 82.6386 81.2753L83.8516 81.7915L84.1613 81.9131C86.6868 81.6919 89.6585 81.4007 91.0595 81.1389C91.2254 81.1057 91.395 81.0688 91.5609 81.0283C91.408 81.9583 91.0816 82.8513 90.5986 83.6607L90.8678 83.6865C91.0516 83.7046 91.2362 83.7132 91.4208 83.7123C91.8972 82.802 92.2092 81.8148 92.3425 80.796C94.1932 80.2033 95.7997 79.0227 96.918 77.4336C96.9586 77.5626 96.9991 77.6953 97.0286 77.8281C97.3928 79.1733 97.262 80.6046 96.6599 81.8615C97.0745 81.5483 97.4573 81.1951 97.8029 80.8071C98.0363 79.7687 98.0211 78.6899 97.7586 77.6585C97.6706 77.2922 97.5572 76.9325 97.4194 76.5819C97.6814 76.0436 97.8723 75.4735 97.9872 74.8859C98.2453 73.5291 97.471 70.4911 96.2101 67.0476C96.6883 67.0509 97.1655 67.0928 97.637 67.1729C97.5116 66.8853 97.4157 66.6236 97.3273 66.3765ZM95.1335 66.3249C94.4959 66.3778 93.8634 66.4813 93.2422 66.6346C92.8329 65.8014 92.2872 64.7174 91.6715 63.5524C92.1988 63.0141 92.7444 62.4905 93.3011 61.9891C93.9611 63.427 94.5842 64.9018 95.1335 66.3249ZM91.2623 70.6533C90.3223 70.2049 89.3469 69.8349 88.3459 69.5473C88.8142 69.2634 89.3193 68.9832 89.8539 68.714C89.8715 68.7484 89.8863 68.7842 89.8981 68.821C89.8905 68.7783 89.8905 68.7346 89.8981 68.6919L90.1157 68.585L90.241 68.7657L90.0382 69.0717L90.3037 69.2376L90.5175 69.0274C90.6355 68.9094 90.7129 68.832 90.5175 68.397C91.2754 68.0487 92.058 67.7567 92.8587 67.5232C93.0873 67.9914 93.2458 68.3232 93.3122 68.467C93.2717 68.655 93.0136 69.4256 91.2623 70.6533ZM93.9242 68.9684C94.6275 69.4288 95.1642 70.1031 95.455 70.8918C95.7457 71.6805 95.7752 72.5417 95.5391 73.3485C95.517 73.437 95.4912 73.5144 95.4654 73.5955C94.4564 72.5577 93.2891 71.6865 92.007 71.0147C93.22 70.1298 93.7251 69.4367 93.9242 68.9684ZM88.8031 65.5875C88.6593 65.3626 88.5045 65.1304 88.3386 64.876C88.0249 64.4022 87.6878 63.9445 87.3283 63.5044C87.7265 62.2067 88.1505 60.8867 88.5708 59.6148C89.3082 60.7909 90.0677 62.1329 90.7572 63.416C90.0677 64.1312 89.4151 64.8649 88.8031 65.5875ZM91.1296 64.1128C91.6642 65.1267 92.1398 66.0668 92.5121 66.8227C91.7042 67.0652 90.9145 67.3646 90.1488 67.7186C89.9387 67.3499 89.64 66.878 89.2308 66.2438C89.8244 65.5396 90.4622 64.8317 91.1296 64.1165V64.1128ZM88.7331 66.8411C89.0686 67.3683 89.3082 67.7591 89.4704 68.043C88.3758 68.6014 87.3245 69.241 86.3255 69.9565C86.9855 69.0606 87.8003 67.9803 88.7331 66.8448V66.8411ZM89.9387 55.6145C91.0578 57.4476 92.0709 59.3433 92.973 61.2923C92.4015 61.7974 91.8411 62.3246 91.2992 62.8703C90.536 61.4582 89.6917 59.9798 88.8695 58.7262C89.2419 57.6091 89.6069 56.5546 89.9387 55.6145ZM86.0637 51.393C86.6536 51.808 87.2175 52.2586 87.7523 52.7424C88.3903 53.3701 88.9555 54.0676 89.4373 54.8218C89.1054 55.7656 88.7367 56.8201 88.357 57.9446C87.9075 57.2692 87.3872 56.6438 86.8048 56.079C86.3063 55.6324 85.7669 55.2337 85.1936 54.8882C85.4775 53.6272 85.7762 52.4474 86.0637 51.393ZM85.0203 55.655C85.4778 55.9402 85.9096 56.2646 86.3108 56.6247C86.9766 57.2932 87.5641 58.0354 88.062 58.8368C87.627 60.1383 87.1846 61.5025 86.7642 62.8555C85.9416 61.9467 85.0611 61.092 84.1281 60.2968C84.3862 58.6746 84.6922 57.115 85.0167 55.655H85.0203ZM85.389 67.6743C84.8018 67.0119 84.1645 66.3956 83.4829 65.8309C83.5898 64.2639 83.7705 62.697 83.9991 61.1633C84.8952 61.944 85.7355 62.7866 86.5135 63.6851C86.0822 65.0677 85.695 66.4282 85.3817 67.6743H85.389ZM85.9531 68.4523L85.9974 68.4191L85.9716 68.3859C86.2702 67.1508 86.6536 65.783 87.0776 64.3672C87.3099 64.6658 87.5311 64.9718 87.7339 65.2815C87.9367 65.5912 88.1432 65.9046 88.3164 66.1774C87.2915 67.4199 86.3992 68.6034 85.7024 69.5768C85.7651 69.2191 85.8536 68.8394 85.9458 68.4523H85.9531ZM86.0269 71.1253C86.4472 70.8008 86.9855 70.4137 87.6086 70.0192L87.5864 70.1187C88.5982 70.3749 89.5853 70.7204 90.536 71.1511C89.9829 71.4976 89.3193 71.87 88.5266 72.2571C87.7381 71.7829 86.8967 71.403 86.0195 71.1253H86.0269ZM89.216 72.7328C90.0456 72.2977 90.7387 71.8921 91.3102 71.5161C92.7558 72.2225 94.0593 73.1885 95.1557 74.3661C94.4883 75.5864 93.3122 75.9846 91.9849 76.2501C91.4251 74.8304 90.4595 73.607 89.2087 72.7328H89.216ZM92.4237 79.9775C92.4458 79.6568 92.4605 79.3212 92.4605 78.9636C92.4638 78.2868 92.3782 77.6125 92.2061 76.9579C93.5261 76.6814 94.8423 76.239 95.6571 74.9744C96.0258 75.4614 96.3363 75.9897 96.5825 76.5487C95.6396 78.1455 94.1647 79.3594 92.4163 79.9775H92.4237ZM97.2388 74.7421C97.178 75.0571 97.0917 75.3666 96.9807 75.6675C96.7059 75.1601 96.3838 74.6799 96.0184 74.2333C96.1128 74.002 96.1905 73.7642 96.2507 73.5218C96.5209 72.4997 96.4429 71.4167 96.0289 70.4439C95.6149 69.4711 94.8887 68.6639 93.9648 68.1499C93.8947 68.0025 93.7657 67.7223 93.5961 67.3536C94.2021 67.2122 94.8186 67.121 95.4396 67.0807C96.6857 70.4616 97.4932 73.4554 97.2314 74.7421H97.2388Z" fill="#CCCCCC"/>
</g>
<path d="M83.8507 81.7908C83.8507 81.7908 87.8326 83.402 90.8559 83.6859C93.8791 83.9698 98.532 81.7908 99.2915 77.809C100.051 73.8271 97.4886 66.3427 96.6369 64.7315C95.7853 63.1203 90.6641 51.7463 87.8215 49.2834C84.9789 46.8206 80.3334 45.3937 79.3859 45.0177C78.4383 44.6416 79.102 48.24 78.914 50.5148C78.7259 52.7897 78.7222 64.3518 78.7222 64.3518L78.0586 79.516C78.0586 79.516 81.5575 80.8359 83.8507 81.7908Z" stroke="#263238" stroke-linecap="round" stroke-linejoin="round"/>
<path d="M88.666 69.558C88.666 69.558 93.1235 66.1439 96.5339 70.7894" stroke="#263238" stroke-linecap="round" stroke-linejoin="round"/>
<path d="M56.91 19.6224C56.7183 19.9395 56.8178 14.5124 58.3553 11.8799C58.8715 10.9987 63.5907 9.34702 68.1514 10.4052C72.7121 11.4633 74.6662 13.7455 74.8284 14.8036C74.9906 15.8618 74.2643 22.6383 74.2643 22.6383C74.2643 22.6383 66.9274 18.402 56.91 19.6224Z" fill="#92E3A9" stroke="#263238" stroke-linecap="round" stroke-linejoin="round"/>
<path d="M81.0209 26.4915C81.3774 23.0238 74.6468 19.491 65.9876 18.6007C57.3283 17.7104 50.0196 19.7999 49.6631 23.2676C49.3066 26.7354 56.0373 30.2682 64.6965 31.1585C73.3557 32.0487 80.6644 29.9593 81.0209 26.4915Z" fill="#A6A6A6" stroke="#263238" stroke-linecap="round" stroke-linejoin="round"/>
<path d="M47.8401 43.2007C47.8401 43.2007 41.8194 45.1695 38.9915 47.5033C36.1637 49.8371 25.844 59.423 21.2943 62.6196C16.7447 65.8161 15.0266 71.0994 17.3641 75.0334C19.7016 78.9673 24.2439 79.948 27.1934 79.2106C30.1429 78.4732 33.8298 74.1706 37.1481 72.2055C40.4663 70.2404 43.0471 66.6752 43.0471 66.6752C43.0471 66.6752 44.7689 54.2614 45.3846 50.5745C46.0003 46.8876 48.3342 43.6947 48.3342 43.6947C48.3342 43.6947 48.3342 42.832 47.8401 43.2007Z" fill="white"/>
<mask id="mask1_339_160" style="mask-type:luminance" maskUnits="userSpaceOnUse" x="16" y="43" width="33" height="37">
<path d="M47.8401 43.2007C47.8401 43.2007 41.8194 45.1695 38.9915 47.5033C36.1637 49.8371 25.844 59.423 21.2943 62.6196C16.7447 65.8161 15.0266 71.0994 17.3641 75.0334C19.7016 78.9673 24.2439 79.948 27.1934 79.2106C30.1429 78.4732 33.8298 74.1706 37.1481 72.2055C40.4663 70.2404 43.0471 66.6752 43.0471 66.6752C43.0471 66.6752 44.7689 54.2614 45.3846 50.5745C46.0003 46.8876 48.3342 43.6947 48.3342 43.6947C48.3342 43.6947 48.3342 42.832 47.8401 43.2007Z" fill="white"/>
</mask>
<g mask="url(#mask1_339_160)">
<path d="M41.8754 50.1245C42.0597 48.1041 42.2441 46.4634 42.3953 45.4237C42.1298 45.5527 41.8643 45.6892 41.6026 45.8293C41.4551 46.987 41.2634 48.6497 41.0901 50.6222C39.9017 51.4073 38.7829 52.2929 37.7461 53.2694C37.193 53.8003 36.5662 54.3386 35.9026 54.8769C35.8141 52.9524 35.7625 51.3854 35.733 50.3531L34.9956 50.9909C35.0288 52.097 35.0841 53.6234 35.1726 55.4152C33.5872 56.6208 31.7733 57.8338 29.9519 59.0321C29.6164 57.9555 29.3104 57.0116 29.056 56.23L28.4514 56.7572C28.7021 57.5241 28.9933 58.4311 29.3104 59.456L28.8532 59.7547C27.4485 60.6727 26.0954 61.5613 24.8787 62.4129C24.478 62.0713 24.0445 61.7699 23.5846 61.5133C23.4113 61.4175 23.2454 61.3364 23.0832 61.2663C22.8509 61.447 22.626 61.635 22.4085 61.7862C22.7083 61.8935 22.9982 62.0267 23.2749 62.1844C23.6213 62.3841 23.9506 62.6123 24.2593 62.8664C23.4666 63.4379 22.744 63.9909 22.1357 64.5182C21.3902 65.1514 20.7274 65.876 20.1632 66.675C19.2534 66.5948 18.3367 66.6645 17.4496 66.8815C17.2948 67.1764 17.1547 67.4751 17.0293 67.7774C17.8918 67.5046 18.7946 67.3811 19.6986 67.4124C17.951 70.4614 18.2239 74.0488 20.5355 77.9422C20.5682 77.9972 20.6146 78.0428 20.6702 78.0745C20.7258 78.1062 20.7886 78.1228 20.8526 78.1228C20.9189 78.124 20.9842 78.1061 21.0407 78.0712C21.1247 78.0213 21.1856 77.9401 21.2098 77.8454C21.234 77.7507 21.2196 77.6502 21.1697 77.5661C18.9576 73.8092 18.7437 70.3803 20.5319 67.4898C20.8291 67.5329 21.1234 67.5944 21.413 67.6742C22.4843 67.9781 23.4861 68.4878 24.3626 69.1747C24.2593 69.3517 24.1561 69.5434 24.0676 69.7093C22.1099 73.6064 24.9672 76.0397 24.9967 76.0655C25.034 76.0966 25.077 76.12 25.1233 76.1344C25.1696 76.1488 25.2183 76.1539 25.2666 76.1494C25.3149 76.145 25.3618 76.131 25.4047 76.1084C25.4476 76.0858 25.4856 76.0549 25.5166 76.0176C25.5476 75.9804 25.571 75.9373 25.5854 75.891C25.5998 75.8447 25.6049 75.796 25.6005 75.7477C25.596 75.6994 25.5821 75.6525 25.5595 75.6096C25.5368 75.5667 25.506 75.5287 25.4686 75.4978C25.4428 75.4756 23.0279 73.4183 24.7313 70.0411C24.7939 69.9121 24.8714 69.7831 24.9451 69.6503C26.1214 70.725 27.1327 71.9673 27.9462 73.3372C27.8543 73.9127 27.9075 74.502 28.1011 75.0516C28.132 75.113 28.1795 75.1645 28.2381 75.2003C28.2967 75.2362 28.3642 75.2549 28.4329 75.2544C28.4903 75.2552 28.5471 75.2426 28.5988 75.2176C28.6648 75.183 28.7188 75.1293 28.7537 75.0635C28.7886 74.9977 28.8027 74.9229 28.7942 74.8489C29.1285 75.4904 29.4554 76.1737 29.775 76.8988C29.8037 76.9647 29.8512 77.0208 29.9115 77.0601C29.9717 77.0994 30.0422 77.1202 30.1141 77.12C30.1651 77.1192 30.2153 77.1079 30.2616 77.0868C30.3502 77.0472 30.4196 76.9743 30.4548 76.8839C30.49 76.7935 30.4882 76.6929 30.4497 76.6038C29.939 75.4201 29.3516 74.271 28.691 73.1639C28.8072 72.4026 29.0204 71.6592 29.3251 70.9518C30.064 72.8817 30.6955 74.8511 31.2165 76.8508C31.4267 76.6886 31.6332 76.519 31.8433 76.3457C31.2782 74.2088 30.58 72.1093 29.7528 70.0596C30.2583 69.1264 30.8775 68.2595 31.5963 67.4787C32.2452 69.9563 32.8572 72.5667 33.3439 75.1069L33.9928 74.5687C33.484 71.9878 32.8535 69.3517 32.1973 66.8593C32.507 66.557 32.8388 66.2584 33.1964 65.9671C34.0062 65.3206 34.8585 64.7293 35.7477 64.1974C35.8473 65.3772 35.9579 66.5828 36.0833 67.7921C35.046 68.4026 34.0813 69.1286 33.2075 69.9563C33.1388 70.0254 33.1003 70.1189 33.1003 70.2163C33.1003 70.3137 33.1388 70.4071 33.2075 70.4762C33.2417 70.5108 33.2825 70.5382 33.3274 70.5569C33.3724 70.5756 33.4206 70.5853 33.4692 70.5853C33.5179 70.5853 33.5661 70.5756 33.611 70.5569C33.656 70.5382 33.6967 70.5108 33.731 70.4762C34.4748 69.768 35.2932 69.1425 36.1717 68.6106C36.3118 69.9305 36.4741 71.2541 36.651 72.5556C36.817 72.445 36.9866 72.3381 37.1525 72.2385L37.3331 72.1242C37.1598 70.8228 37.005 69.5029 36.8649 68.1866C38.1573 67.4398 39.4862 66.7581 40.8468 66.1441C40.9242 67.0953 41.0274 68.0318 41.1565 68.9388C41.3887 68.6917 41.6063 68.4521 41.8053 68.2309C41.7058 67.4456 41.621 66.6418 41.5583 65.8233C42.1851 65.5468 42.7713 65.2998 43.2764 65.0859C43.3133 64.8242 43.3538 64.544 43.3981 64.238C42.8598 64.4518 42.2146 64.7173 41.503 65.027C41.4256 63.7992 41.385 62.553 41.3703 61.3069C42.3252 60.8829 43.2137 60.5142 43.9511 60.2008C43.988 59.9206 44.0286 59.6404 44.0691 59.3528C43.3059 59.6551 42.3731 60.0349 41.3519 60.481C41.3519 59.209 41.3777 57.9444 41.4256 56.7167C42.7381 55.9203 43.8553 55.2604 44.7438 54.7405C44.7917 54.4197 44.8397 54.1064 44.8839 53.804C44.0175 54.3091 42.8672 54.9912 41.4698 55.8318C41.551 54.1395 41.6616 52.5136 41.7869 51.0794C43.094 50.2351 44.4481 49.4657 45.8425 48.7751C45.9494 48.4285 46.0674 48.0967 46.1928 47.7723C44.71 48.4734 43.2685 49.2587 41.8754 50.1245ZM35.2168 56.3517C35.2684 57.3582 35.3311 58.4385 35.4049 59.5703C33.7826 60.599 32.3152 61.576 30.9806 62.5199C30.7004 61.5576 30.4275 60.6432 30.1658 59.7989C31.9207 58.6523 33.661 57.4909 35.2168 56.3517ZM29.2551 60.4073C29.351 60.3483 29.4431 60.2856 29.5353 60.2229C29.8008 61.0857 30.0773 62.0111 30.3612 62.9881C29.3316 63.7506 28.3468 64.5716 27.4116 65.4473C26.8466 64.5496 26.1852 63.7163 25.4391 62.9623C26.6042 62.1364 27.9094 61.2811 29.2551 60.4073ZM24.746 68.5185C23.8121 67.7949 22.7483 67.2567 21.6121 66.9331C21.4057 66.8778 21.2029 66.8335 21.0038 66.793C21.4776 66.1618 22.0191 65.5844 22.6187 65.0712C23.2417 64.5329 23.9939 63.9651 24.8308 63.3679C25.6142 64.1427 26.3013 65.0092 26.877 65.9487C26.0804 66.7298 25.3663 67.591 24.746 68.5185ZM28.1269 72.2496C27.3443 71.0406 26.4017 69.943 25.3249 68.9867C25.8913 68.1277 26.5436 67.3285 27.2715 66.6013C27.9051 67.6968 28.4644 68.8337 28.9454 70.0043C28.5902 70.7252 28.3157 71.4831 28.1269 72.2643V72.2496ZM29.3878 69.1858C28.9237 68.1219 28.3968 67.0865 27.8098 66.0851C28.6913 65.2563 29.6181 64.4771 30.5861 63.7513C30.8478 64.6693 31.1133 65.6242 31.3751 66.6086C30.6112 67.3899 29.9441 68.2601 29.3878 69.2005V69.1858ZM32.7282 65.3477C32.4627 65.5616 32.2157 65.7791 31.9908 66.0003C31.7364 65.0601 31.482 64.1569 31.2276 63.2609C32.507 62.3208 33.9264 61.3659 35.4749 60.3778C35.5364 61.3339 35.6089 62.3171 35.6924 63.3273C34.6565 63.9333 33.6658 64.6134 32.7282 65.3625V65.3477ZM36.1681 59.928L37.0197 59.3934C38.3544 58.565 39.576 57.8141 40.6845 57.1407C40.644 58.3315 40.6218 59.5519 40.6292 60.7796C39.2614 61.399 37.7903 62.1217 36.3819 62.918C36.2897 61.9078 36.2307 60.9087 36.1681 59.9427V59.928ZM36.7801 67.3313C36.6547 66.1183 36.5478 64.9127 36.4483 63.7329C37.8161 62.9475 39.2724 62.2212 40.6366 61.5981C40.6366 62.8406 40.6993 64.0831 40.7841 65.3072C39.5084 65.8971 38.0963 66.5865 36.7801 67.346V67.3313ZM40.7177 56.2706C39.5047 57.0079 38.1369 57.8412 36.6326 58.7777L36.1128 59.1021C36.039 57.9297 35.98 56.8199 35.9284 55.7839C36.7384 55.1641 37.5161 54.5033 38.2585 53.804C39.1185 52.9986 40.0379 52.2591 41.009 51.5919C40.891 53.0335 40.7878 54.6188 40.714 56.2743L40.7177 56.2706Z" fill="#CCCCCC"/>
</g>
<path d="M47.8401 43.2007C47.8401 43.2007 41.8194 45.1695 38.9915 47.5033C36.1637 49.8371 25.844 59.423 21.2943 62.6196C16.7447 65.8161 15.0266 71.0994 17.3641 75.0334C19.7016 78.9673 24.2439 79.948 27.1934 79.2106C30.1429 78.4732 33.8298 74.1706 37.1481 72.2055C40.4663 70.2404 43.0471 66.6752 43.0471 66.6752C43.0471 66.6752 44.7689 54.2614 45.3846 50.5745C46.0003 46.8876 48.3342 43.6947 48.3342 43.6947C48.3342 43.6947 48.3342 42.832 47.8401 43.2007Z" stroke="#263238" stroke-linecap="round" stroke-linejoin="round"/>
<path d="M20.6833 71.3465C19.8734 71.2862 19.0639 71.4664 18.3561 71.8646C17.6484 72.2627 17.074 72.861 16.7051 73.5845C16.8731 74.0895 17.0943 74.5752 17.365 75.0334C18.4373 76.8412 20.1181 78.2083 22.1064 78.8899C23.9019 78.1968 25.2292 76.91 25.2292 75.7708C25.2292 74.296 24.6135 71.4682 20.6833 71.3465Z" fill="white" stroke="#263238" stroke-linecap="round" stroke-linejoin="round"/>
<path d="M45.5065 140.867L41.1486 144.922C39.7328 146.239 38.4129 147.455 38.4129 148.366C38.4129 149.277 37.9078 150.493 38.6157 151.102C39.3236 151.71 42.5681 152.421 45.7093 152.421C48.1665 152.38 50.5326 151.485 52.4011 149.889C53.614 148.875 53.7173 147.555 55.0335 146.939C56.3497 146.323 58.6836 146.434 59.0891 144.915C59.4947 143.396 58.8863 141.062 58.8863 141.062L45.5065 140.867Z" fill="#878787" stroke="#263238" stroke-linecap="round" stroke-linejoin="round"/>
<path d="M59.0809 144.922C59.1742 144.534 59.22 144.137 59.2173 143.738C57.6872 144.984 54.4833 146.282 53.4952 147.156C52.3449 148.173 51.3273 150.74 45.6163 151.049C40.8233 151.311 38.8213 149.899 38.2904 149.427C38.1982 150.076 38.154 150.714 38.6075 151.101C39.319 151.709 42.5598 152.421 45.7011 152.421C48.1582 152.38 50.5244 151.484 52.3928 149.888C53.6058 148.874 53.7091 147.554 55.0253 146.938C56.3415 146.323 58.6753 146.441 59.0809 144.922Z" fill="#263238" stroke="#263238" stroke-linecap="round" stroke-linejoin="round"/>
<path d="M77.9521 140.867L82.31 144.922C83.7295 146.239 85.0457 147.455 85.0457 148.366C85.0457 149.277 85.5508 150.493 84.8429 151.102C84.135 151.71 80.8905 152.421 77.7493 152.421C75.2932 152.38 72.9283 151.485 71.0612 149.889C69.8445 148.875 69.745 147.555 68.4251 146.939C67.1052 146.323 64.7787 146.434 64.3695 144.915C63.9602 143.396 64.5723 141.062 64.5723 141.062L77.9521 140.867Z" fill="#878787" stroke="#263238" stroke-linecap="round" stroke-linejoin="round"/>
<path d="M64.3687 144.922C64.2741 144.534 64.227 144.137 64.2286 143.738C65.7623 144.984 68.9625 146.282 69.9506 147.156C71.1046 148.173 72.1222 150.74 77.8296 151.049C82.6226 151.311 84.6245 149.899 85.1591 149.427C85.2476 150.076 85.2919 150.714 84.8384 151.101C84.1305 151.709 80.886 152.421 77.7448 152.421C75.2887 152.38 72.9237 151.484 71.0567 149.888C69.84 148.874 69.7405 147.554 68.4206 146.938C67.1007 146.323 64.7742 146.441 64.3687 144.922Z" fill="#263238" stroke="#263238" stroke-linecap="round" stroke-linejoin="round"/>
<path d="M60.4394 39.7602C60.4394 39.7602 50.9309 42.4074 48.3501 43.1447C45.7692 43.8821 44.4014 49.3461 44.0327 55.6138C43.664 61.8816 41.8205 84.003 41.6362 84.9247C41.4518 85.8464 39.354 94.3263 39.907 97.2758C40.4601 100.225 45.6918 135.62 45.6918 135.62C45.6918 135.62 44.217 137.832 44.5857 138.385C44.9544 138.938 45.1388 141.703 45.1388 141.703C45.1388 141.703 49.7474 143.362 52.6969 143.362C55.6465 143.362 59.3334 142.256 59.3334 142.256C59.3334 142.256 58.4116 135.435 58.7803 131.38C59.149 127.324 59.149 100.778 59.149 100.778L62.8359 142.809C62.8359 142.809 67.2602 144.099 71.1315 143.915C75.0027 143.731 79.0583 141.519 79.0583 141.519C79.0583 141.519 79.6114 138.385 79.2427 136.91C78.874 135.435 76.6619 132.854 76.6619 131.933C76.6619 131.011 78.5053 100.225 78.5053 100.225C78.5053 100.225 79.6114 91.5611 79.427 87.1368C79.2427 82.7126 79.6114 72.3892 79.6114 72.3892C79.6114 72.3892 80.3488 62.9876 80.9018 57.6416C81.4548 52.2956 81.6097 47.5027 81.4253 46.3966C81.241 45.2905 72.2376 41.6036 70.0254 40.8662C67.8133 40.1289 63.2046 39.9445 60.4394 39.7602Z" fill="white"/>
<mask id="mask2_339_160" style="mask-type:luminance" maskUnits="userSpaceOnUse" x="39" y="39" width="43" height="105">
<path d="M60.4375 39.7595C60.4375 39.7595 50.9289 42.4067 48.3481 43.1441C45.7673 43.8815 44.3994 49.3455 44.0307 55.6132C43.662 61.8809 41.8186 84.0023 41.6342 84.9241C41.4499 85.8458 39.352 94.3257 39.9051 97.2752C40.4581 100.225 45.6898 135.619 45.6898 135.619C45.6898 135.619 44.2151 137.831 44.5838 138.384C44.9525 138.937 45.1368 141.702 45.1368 141.702C45.1368 141.702 49.7454 143.361 52.695 143.361C55.6445 143.361 59.3314 142.255 59.3314 142.255C59.3314 142.255 58.4097 135.435 58.7784 131.379C59.1471 127.323 59.1471 100.778 59.1471 100.778L62.834 142.808C62.834 142.808 67.2583 144.099 71.1295 143.914C75.0008 143.73 79.0564 141.518 79.0564 141.518C79.0564 141.518 79.6094 138.384 79.2407 136.909C78.8721 135.435 76.6599 132.854 76.6599 131.932C76.6599 131.01 78.5034 100.225 78.5034 100.225C78.5034 100.225 79.6094 91.5605 79.4251 87.1362C79.2407 82.7119 79.6094 72.3886 79.6094 72.3886C79.6094 72.3886 80.3468 62.987 80.8999 57.641C81.4529 52.295 81.6077 47.502 81.4234 46.3959C81.239 45.2899 72.2356 41.603 70.0235 40.8656C67.8113 40.1282 63.2027 39.9439 60.4375 39.7595Z" fill="white"/>
</mask>
<g mask="url(#mask2_339_160)">
<path d="M80.7533 59.1115C80.0527 58.8018 79.3338 58.5143 78.589 58.2488L78.8508 53.9978C79.4628 54.2743 80.4509 54.6651 81.063 54.9785L81.0261 54.2411C80.328 53.8749 79.6226 53.5357 78.9098 53.2236L79.2084 48.3974C79.9458 48.744 80.6463 49.1127 81.3432 49.5035L81.4906 49.2454C81.4906 49.0758 81.4906 48.9099 81.4906 48.7514C80.7533 48.3384 80.006 47.955 79.249 47.601L79.426 44.9207C79.1974 44.799 78.9614 44.6773 78.7107 44.552L78.5411 47.2877C77.5161 46.8379 76.4727 46.4397 75.4146 46.0857L75.8423 43.2136L75.1455 42.9076L74.703 45.8571C72.8114 45.2644 70.8826 44.7976 68.9293 44.4598L69.3939 40.7065C69.169 40.6512 68.9256 40.5959 68.6565 40.548L68.1882 44.3344C66.1402 44.0087 64.0763 43.7921 62.0053 43.6856L62.374 39.9028L61.6366 39.8586L61.2679 43.6487C59.2585 43.5676 57.3119 43.5786 55.4758 43.6487C55.5421 42.6901 55.6011 41.8347 55.6527 41.1121L54.8969 41.3223C54.849 42.0117 54.7937 42.797 54.7347 43.6819C52.7622 43.7814 50.9261 43.951 49.2854 44.1464C49.3666 43.6819 49.444 43.2431 49.5177 42.8302L48.7287 43.0514C48.6624 43.4201 48.5923 43.822 48.5223 44.2386C47.8623 44.3234 47.2429 44.4119 46.6604 44.504C46.4794 44.7545 46.3156 45.0169 46.17 45.2894C46.8521 45.1824 47.5968 45.0681 48.3822 44.9649C48.1278 46.506 47.8697 48.2831 47.6448 50.2556C46.4392 50.44 45.3994 50.6243 44.5515 50.7902C44.5072 51.036 44.4667 51.2941 44.4298 51.5645C45.263 51.3986 46.3175 51.1958 47.5526 51.0151C47.4051 52.276 47.265 53.6144 47.1397 55.0228C45.9488 55.0818 44.9275 55.1481 44.0574 55.2071C44.0574 55.3398 44.0574 55.4689 44.0316 55.5979C44.0058 55.727 44.0316 55.8302 44.0095 55.9666C44.8538 55.9039 45.8861 55.8376 47.0733 55.7786C46.4634 62.9244 46.3968 70.1062 46.8742 77.2622L47.6116 77.2105C47.1355 70.0593 47.2057 62.8822 47.8217 55.7417C49.6025 55.6643 51.6783 55.609 53.9346 55.6127C53.5328 61.7956 53.1309 68.3177 52.9244 72.683L53.6618 72.7199C53.8683 68.3472 54.2702 61.8104 54.6757 55.6127C56.3901 55.6127 58.2004 55.6717 60.0586 55.7712L58.6355 69.9916L59.3728 70.0653L60.796 55.8265C62.7353 55.9408 64.7189 56.1141 66.695 56.3574L65.3567 67.1269L66.0941 67.219L67.4324 56.4533C69.3054 56.704 71.1673 57.0211 72.9628 57.4229L71.0677 70.1428L71.8051 70.2497L73.6965 57.5889C75.1196 57.9281 76.5022 58.3262 77.8258 58.7724L76.9557 72.86L77.6931 72.9079L78.5522 59.0267C79.2895 59.2947 80.0023 59.5859 80.6906 59.9005C80.7053 59.6203 80.7274 59.3623 80.7533 59.1115ZM68.8261 45.164C70.7748 45.5052 72.6987 45.9758 74.585 46.5724L73.8477 51.3875C71.9895 50.8566 70.1008 50.4392 68.1919 50.1376L68.8261 45.164ZM53.9863 54.8753C51.7409 54.8753 49.6726 54.9269 47.8881 55.0043C48.0172 53.5664 48.1646 52.2023 48.3158 50.9156C50.0413 50.6685 52.0654 50.44 54.2923 50.2999C54.1854 51.7709 54.0821 53.3084 53.9863 54.8753ZM54.355 49.5625C52.1428 49.6989 50.1445 49.9312 48.4227 50.1598C48.6697 48.1836 48.9315 46.4139 49.1859 44.8801C50.8376 44.681 52.6995 44.5114 54.7163 44.4008C54.5799 45.9309 54.4619 47.6822 54.3328 49.5625H54.355ZM80.0454 67.0421C67.4398 61.0767 49.9675 61.3827 43.6002 61.7329C43.5806 61.9787 43.5621 62.2245 43.5449 62.4703C49.8127 62.1016 67.4472 61.7698 79.979 67.82C80.0011 67.5804 80.0232 67.3186 80.0454 67.0421ZM60.136 55.0301C58.2668 54.9306 56.4491 54.8827 54.7273 54.8679C54.8306 53.2826 54.9338 51.7304 55.0333 50.2445C56.7957 50.1524 58.6723 50.1155 60.6227 50.1708L60.136 55.0301ZM60.6964 49.4371C58.7387 49.3818 56.8547 49.4187 55.085 49.5072C55.2103 47.6305 55.3283 45.8793 55.4352 44.3455C57.2787 44.2718 59.2032 44.257 61.2052 44.3455L60.6964 49.4371ZM66.7835 55.6127C64.8 55.3657 62.809 55.1924 60.866 55.0781L61.3601 50.204C63.3802 50.2811 65.3948 50.4645 67.3956 50.7533L66.7835 55.6127ZM61.4264 49.4703L61.9352 44.3861C64.0002 44.4924 66.0579 44.709 68.0998 45.035L67.4804 50.0233C65.4732 49.7363 63.4525 49.5529 61.4264 49.474V49.4703ZM73.0734 56.6782C71.2631 56.2763 69.3865 55.9408 67.5172 55.7085L68.1182 50.8639C70.0218 51.1642 71.9047 51.5841 73.7555 52.1212L73.0734 56.6782ZM77.8664 57.9944C76.5575 57.5557 75.1971 57.1722 73.8108 56.8441L74.4855 52.335C75.7279 52.7198 76.9498 53.1678 78.1466 53.6771L77.8664 57.9944ZM78.1798 52.8991C76.9975 52.4075 75.7968 51.9737 74.5777 51.5976L75.2929 46.8047C76.3744 47.1709 77.4375 47.5875 78.4821 48.0545L78.1798 52.8991Z" fill="#CCCCCC"/>
</g>
<path d="M60.4394 39.7602C60.4394 39.7602 50.9309 42.4074 48.3501 43.1447C45.7692 43.8821 44.4014 49.3461 44.0327 55.6138C43.664 61.8816 41.8205 84.003 41.6362 84.9247C41.4518 85.8464 39.354 94.3263 39.907 97.2758C40.4601 100.225 45.6918 135.62 45.6918 135.62C45.6918 135.62 44.217 137.832 44.5857 138.385C44.9544 138.938 45.1388 141.703 45.1388 141.703C45.1388 141.703 49.7474 143.362 52.6969 143.362C55.6465 143.362 59.3334 142.256 59.3334 142.256C59.3334 142.256 58.4116 135.435 58.7803 131.38C59.149 127.324 59.149 100.778 59.149 100.778L62.8359 142.809C62.8359 142.809 67.2602 144.099 71.1315 143.915C75.0027 143.731 79.0583 141.519 79.0583 141.519C79.0583 141.519 79.6114 138.385 79.2427 136.91C78.874 135.435 76.6619 132.854 76.6619 131.933C76.6619 131.011 78.5053 100.225 78.5053 100.225C78.5053 100.225 79.6114 91.5611 79.427 87.1368C79.2427 82.7126 79.6114 72.3892 79.6114 72.3892C79.6114 72.3892 80.3488 62.9876 80.9018 57.6416C81.4548 52.2956 81.6097 47.5027 81.4253 46.3966C81.241 45.2905 72.2376 41.6036 70.0254 40.8662C67.8133 40.1289 63.2046 39.9445 60.4394 39.7602Z" stroke="#263238" stroke-linecap="round" stroke-linejoin="round"/>
<path d="M61.3156 46.0687L59.7598 61.0228" stroke="#263238" stroke-linecap="round" stroke-linejoin="round"/>
<path d="M59.149 100.778L62.8359 142.809C62.8359 142.809 67.2602 144.099 71.1315 143.915C75.0028 143.73 79.0584 141.518 79.0584 141.518C79.0584 141.518 79.6114 138.384 79.2427 136.91C78.874 135.435 76.6619 132.854 76.6619 131.932C76.6619 131.011 78.5053 100.225 78.5053 100.225C78.5053 100.225 79.6114 91.5608 79.427 87.1366C79.4049 86.6462 79.3939 86.0784 79.3865 85.4664C79.0178 84.2829 77.3218 78.83 75.9908 73.1005C74.4866 66.6226 72.9012 60.3844 72.9012 60.3844L50.411 58.541C49.3713 58.3087 49.257 59.4664 49.257 59.4664L42.3699 76.7948C42.0012 81.2191 41.6878 84.6073 41.6325 84.9576C41.4518 85.8461 39.354 94.326 39.907 97.2755C40.4601 100.225 45.6918 135.619 45.6918 135.619C45.6918 135.619 44.217 137.831 44.5857 138.384C44.9544 138.938 45.1388 141.703 45.1388 141.703C45.1388 141.703 49.7474 143.362 52.6969 143.362C55.6465 143.362 59.3334 142.256 59.3334 142.256C59.3334 142.256 58.4116 135.435 58.7803 131.379C59.149 127.324 59.149 100.778 59.149 100.778Z" fill="#92E3A9" stroke="#263238" stroke-linecap="round" stroke-linejoin="round"/>
<path d="M52.7441 62.9212L67.9969 64.4255L67.7904 73.9008C67.7821 74.3022 67.6856 74.6968 67.5079 75.0568C67.3301 75.4168 67.0754 75.7333 66.7618 75.9839L60.0442 81.3557C59.6319 81.6858 59.108 81.8441 58.5818 81.7973C58.0556 81.7506 57.5678 81.5026 57.2201 81.105L51.5275 74.5755C51.2534 74.26 51.0548 73.8861 50.9469 73.4824C50.8389 73.0786 50.8244 72.6556 50.9044 72.2454L52.7441 62.9212Z" stroke="#263238" stroke-linecap="round" stroke-linejoin="round"/>
<path d="M54.0156 86.8644C54.0156 86.8644 58.4104 88.2507 64.3095 87.093" stroke="#263238" stroke-linecap="round" stroke-linejoin="round"/>
<path d="M57.833 88.5967L57.7188 97.9652L57.9768 97.7403C58.4799 97.2996 58.8887 96.7619 59.1789 96.1594C59.4691 95.5569 59.6345 94.902 59.6654 94.234L59.9162 88.9433" stroke="#263238" stroke-linecap="round" stroke-linejoin="round"/>
<path d="M54.4766 99.3562L61.0688 101.089" stroke="#263238" stroke-linecap="round" stroke-linejoin="round"/>
<path d="M57.5619 38.1934C57.5619 38.1934 55.8512 40.6378 55.7701 43.0822C55.689 45.5266 54.7119 48.6126 55.7701 48.7821C56.8282 48.9517 60.5631 45.604 61.7171 45.8511C62.8711 46.0981 66.0308 50.0025 66.7645 49.9067C67.4982 49.8108 68.8844 46.7322 68.8844 43.2297C68.8844 39.7271 68.6374 38.9934 66.6723 37.8542C64.7072 36.7149 60.1686 35.5056 57.5619 38.1934Z" fill="white" stroke="#263238" stroke-linecap="round" stroke-linejoin="round"/>
<path d="M58.8652 39.6605C58.8652 39.6605 59.4367 44.7927 61.2285 45.6849C63.0204 46.5771 66.523 40.962 66.9285 40.7186C67.3341 40.4753 62.4673 41.209 58.8652 39.6605Z" fill="#CCCCCC" stroke="#263238" stroke-linecap="round" stroke-linejoin="round"/>
<path d="M73.0078 31.4465C73.0078 31.4465 74.5047 29.6436 75.2199 30.7092C75.9352 31.7747 75.1388 33.8025 74.2429 34.8606C73.757 35.4739 73.0581 35.8819 72.2852 36.0035L73.0078 31.4465Z" fill="white" stroke="#263238" stroke-linecap="round" stroke-linejoin="round"/>
<path d="M56.176 29.6432C56.176 29.6432 54.55 27.6855 53.9638 29.3962C53.3776 31.1069 55.3501 34.1228 55.5934 34.1228H55.8368L56.176 29.6432Z" fill="white" stroke="#263238" stroke-linecap="round" stroke-linejoin="round"/>
<path d="M56.7144 23.7738C56.7144 23.7738 55.4018 34.4326 56.3014 37.0466C57.201 39.6606 60.7257 42.1309 64.0108 41.965C67.2958 41.799 70.3265 40.1621 71.3846 39.0154C72.4427 37.8688 73.8438 24.5001 73.8438 24.5001C73.8438 24.5001 70.3191 22.6124 64.7408 22.0409C59.1625 21.4695 56.7144 23.7738 56.7144 23.7738Z" fill="white" stroke="#263238" stroke-linecap="round" stroke-linejoin="round"/>
<path d="M68.1139 29.1128C68.1146 29.1511 68.1039 29.1886 68.0831 29.2207C68.0623 29.2528 68.0324 29.2779 67.9972 29.2929C67.9621 29.3079 67.9232 29.312 67.8857 29.3047C67.8482 29.2974 67.8137 29.2791 67.7866 29.2521C67.7596 29.225 67.7413 29.1905 67.734 29.153C67.7267 29.1155 67.7308 29.0766 67.7458 29.0414C67.7607 29.0063 67.7859 28.9764 67.818 28.9556C67.8501 28.9348 67.8876 28.9241 67.9258 28.9248C67.9757 28.9248 68.0235 28.9446 68.0588 28.9799C68.0941 29.0151 68.1139 29.063 68.1139 29.1128Z" fill="white" stroke="#263238" stroke-width="0.5" stroke-linecap="round" stroke-linejoin="round"/>
<path d="M70.3756 28.7958C70.3763 28.834 70.3656 28.8716 70.3448 28.9037C70.324 28.9358 70.2941 28.9609 70.259 28.9759C70.2238 28.9908 70.1849 28.9949 70.1474 28.9877C70.1099 28.9804 70.0754 28.962 70.0483 28.935C70.0213 28.908 70.003 28.8735 69.9957 28.836C69.9884 28.7984 69.9925 28.7596 70.0075 28.7244C70.0225 28.6892 70.0476 28.6593 70.0797 28.6385C70.1118 28.6177 70.1493 28.607 70.1876 28.6078C70.2374 28.6078 70.2853 28.6276 70.3205 28.6628C70.3558 28.6981 70.3756 28.7459 70.3756 28.7958Z" fill="white" stroke="#263238" stroke-width="0.5" stroke-linecap="round" stroke-linejoin="round"/>
<path d="M70.1417 30.0643C70.1498 30.0928 70.1513 30.1228 70.1458 30.152C70.1404 30.1812 70.1283 30.2087 70.1104 30.2324C70.0925 30.2561 70.0694 30.2753 70.0428 30.2885C70.0163 30.3018 69.987 30.3086 69.9573 30.3086C69.9277 30.3086 69.8984 30.3018 69.8718 30.2885C69.8453 30.2753 69.8222 30.2561 69.8043 30.2324C69.7864 30.2087 69.7743 30.1812 69.7689 30.152C69.7634 30.1228 69.7649 30.0928 69.773 30.0643C69.7649 30.0357 69.7634 30.0057 69.7689 29.9765C69.7743 29.9474 69.7864 29.9198 69.8043 29.8961C69.8222 29.8725 69.8453 29.8532 69.8718 29.84C69.8984 29.8268 69.9277 29.8199 69.9573 29.8199C69.987 29.8199 70.0163 29.8268 70.0428 29.84C70.0694 29.8532 70.0925 29.8725 70.1104 29.8961C70.1283 29.9198 70.1404 29.9474 70.1458 29.9765C70.1513 30.0057 70.1498 30.0357 70.1417 30.0643Z" fill="white" stroke="#263238" stroke-width="0.5" stroke-linecap="round" stroke-linejoin="round"/>
<path d="M60.6778 28.0772C60.677 28.1154 60.6878 28.153 60.7085 28.1851C60.7293 28.2172 60.7592 28.2423 60.7944 28.2573C60.8296 28.2723 60.8684 28.2764 60.906 28.2691C60.9435 28.2618 60.978 28.2435 61.005 28.2164C61.0321 28.1894 61.0504 28.1549 61.0577 28.1174C61.0649 28.0799 61.0608 28.041 61.0459 28.0058C61.0309 27.9706 61.0058 27.9407 60.9737 27.92C60.9416 27.8992 60.904 27.8885 60.8658 27.8892C60.8159 27.8892 60.7681 27.909 60.7328 27.9443C60.6976 27.9795 60.6778 28.0274 60.6778 28.0772Z" fill="white" stroke="#263238" stroke-width="0.5" stroke-linecap="round" stroke-linejoin="round"/>
<path d="M58.4102 27.7592C58.4095 27.7975 58.4202 27.835 58.441 27.8671C58.4617 27.8992 58.4916 27.9243 58.5268 27.9393C58.562 27.9543 58.6009 27.9584 58.6384 27.9511C58.6759 27.9438 58.7104 27.9255 58.7374 27.8984C58.7645 27.8714 58.7828 27.8369 58.7901 27.7994C58.7974 27.7619 58.7933 27.723 58.7783 27.6878C58.7633 27.6527 58.7382 27.6228 58.7061 27.602C58.674 27.5812 58.6364 27.5705 58.5982 27.5712C58.5484 27.5712 58.5005 27.591 58.4653 27.6263C58.43 27.6615 58.4102 27.7094 58.4102 27.7592Z" fill="white" stroke="#263238" stroke-width="0.5" stroke-linecap="round" stroke-linejoin="round"/>
<path d="M58.6504 29.0274C58.6497 29.0656 58.6604 29.1032 58.6812 29.1353C58.702 29.1674 58.7319 29.1925 58.7671 29.2075C58.8022 29.2224 58.8411 29.2265 58.8786 29.2193C58.9161 29.212 58.9506 29.1936 58.9777 29.1666C59.0047 29.1396 59.023 29.1051 59.0303 29.0676C59.0376 29.03 59.0335 28.9912 59.0185 28.956C59.0036 28.9208 58.9784 28.8909 58.9463 28.8701C58.9142 28.8493 58.8767 28.8386 58.8385 28.8394C58.7886 28.8394 58.7408 28.8592 58.7055 28.8944C58.6702 28.9297 58.6504 28.9775 58.6504 29.0274Z" fill="white" stroke="#263238" stroke-width="0.5" stroke-linecap="round" stroke-linejoin="round"/>
<path d="M73.3123 24.3163C72.8133 25.216 72.5794 26.2386 72.6376 27.2658C72.7672 28.3195 72.9642 29.3638 73.2275 30.3923L73.0063 31.4357L73.8506 24.5006L73.3123 24.3163Z" fill="#263238" stroke="#263238" stroke-linecap="round" stroke-linejoin="round"/>
<path d="M57.4239 23.4715C57.5151 24.4267 57.5151 25.3884 57.4239 26.3436C57.2347 27.1111 56.8896 27.8314 56.41 28.4598L56.1777 29.6433L56.716 23.7738L57.4239 23.4715Z" fill="#263238" stroke="#263238" stroke-linecap="round" stroke-linejoin="round"/>
<path d="M63.1804 26.7894C63.1804 26.7894 62.1223 30.7012 62.2845 31.1068C62.4467 31.5123 63.833 31.8442 64.9723 31.6783C66.1115 31.5123 65.7834 26.7083 65.7834 26.7083" stroke="#263238" stroke-linecap="round" stroke-linejoin="round"/>
<path d="M67.8242 27.2803C67.8242 27.2803 68.9672 26.4655 70.512 27.5236" stroke="#263238" stroke-linecap="round" stroke-linejoin="round"/>
<path d="M59.1934 26.546C59.5231 26.3108 59.9247 26.1983 60.3287 26.2279C60.7327 26.2575 61.1136 26.4274 61.4055 26.7082" stroke="#263238" stroke-linecap="round" stroke-linejoin="round"/>
<path d="M62.6132 23.538C62.6132 23.538 59.7595 23.2099 58.377 24.4339" stroke="#263238" stroke-width="3" stroke-linecap="round" stroke-linejoin="round"/>
<path d="M67.2598 24.4306C67.2598 24.4306 69.9475 23.778 71.496 25.9053" stroke="#263238" stroke-width="3" stroke-linecap="round" stroke-linejoin="round"/>
<path d="M72.0517 32.8995C71.4839 33.9576 70.0165 35.1116 70.0165 35.1116C70.0165 35.1116 70.0976 32.1621 69.0395 32.0146C67.9814 31.8671 64.1507 32.0957 62.2777 31.4468C62.2777 31.4468 58.5318 30.8754 58.3696 31.6902C58.2073 32.505 57.7981 34.459 57.7981 34.459C57.7981 34.459 57.4737 34.6212 56.9022 33.1575C56.5352 32.15 56.2733 31.1072 56.1206 30.0458C55.9362 32.87 55.8735 35.8453 56.2938 37.0509C57.1971 39.676 60.7181 42.1352 64.0032 41.9692C67.2882 41.8033 70.3189 40.1664 71.377 39.0197C71.9042 38.4519 72.5126 34.8904 72.9919 31.4395C72.6399 31.9002 72.3255 32.3884 72.0517 32.8995ZM67.4099 36.5642C66.7684 36.9329 65.6217 37.0251 64.3903 36.9551C63.9884 35.5909 63.8225 35.7494 62.7681 35.7494C62.0639 35.7494 62.0086 36.2877 62.0307 36.649C61.2712 36.5148 60.5292 36.2959 59.8185 35.9965C58.27 35.2591 59.5715 33.3087 59.5715 33.3087C61.9348 34.2046 67.7159 33.8765 67.7159 33.8765C67.7159 33.8765 68.9658 35.6683 67.4173 36.5642H67.4099Z" fill="#263238" stroke="#263238" stroke-linecap="round" stroke-linejoin="round"/>
<path d="M49.2754 59.4515C49.2754 59.4515 49.622 62.342 50.3151 62.46C51.0082 62.578 51.7051 59.2192 51.7051 59.2192C51.7051 59.2192 49.8542 59.4515 49.2754 59.4515Z" stroke="#263238" stroke-linecap="round" stroke-linejoin="round"/>
<path d="M70.4716 60.1855C70.4716 60.1855 70.3056 63.0945 70.9693 63.3305C71.6329 63.5664 72.9012 60.381 72.9012 60.381C72.9012 60.381 71.0393 60.2888 70.4716 60.1855Z" stroke="#263238" stroke-linecap="round" stroke-linejoin="round"/>
<path d="M50.299 42.105C50.299 42.105 48.8242 56.6756 48.8242 58.4121C48.8242 60.1487 51.3682 61.0704 52.065 58.1799C52.7618 55.2893 54.1444 41.5261 54.1444 41.5261C54.1444 41.5261 51.9323 41.2939 50.299 42.105Z" fill="#92E3A9" stroke="#263238" stroke-linecap="round" stroke-linejoin="round"/>
<path d="M72.8668 41.8731C72.8668 41.8731 69.5117 59.5702 70.2085 60.3777C70.9054 61.1851 72.2879 62.3428 73.5599 59.9168C74.8319 57.4908 77.1473 43.2594 77.1473 43.2594C77.1473 43.2594 74.8319 41.9727 72.8668 41.8731Z" fill="#92E3A9" stroke="#263238" stroke-linecap="round" stroke-linejoin="round"/>
<path d="M51.2404 61.4763C51.2404 61.6222 51.1971 61.7647 51.1161 61.886C51.0351 62.0073 50.9199 62.1018 50.7852 62.1576C50.6505 62.2134 50.5022 62.228 50.3592 62.1995C50.2161 62.1711 50.0847 62.1009 49.9816 61.9977C49.8785 61.8946 49.8082 61.7632 49.7798 61.6202C49.7513 61.4772 49.7659 61.3289 49.8218 61.1942C49.8776 61.0594 49.9721 60.9443 50.0933 60.8632C50.2146 60.7822 50.3572 60.739 50.503 60.739C50.6986 60.739 50.8861 60.8166 51.0244 60.9549C51.1627 61.0932 51.2404 61.2808 51.2404 61.4763Z" fill="white" stroke="#263238" stroke-linecap="round" stroke-linejoin="round"/>
<path d="M71.9416 62.6192C71.9416 62.765 71.8983 62.9076 71.8173 63.0289C71.7363 63.1501 71.6211 63.2446 71.4864 63.3004C71.3516 63.3562 71.2034 63.3708 71.0603 63.3424C70.9173 63.3139 70.7859 63.2437 70.6828 63.1406C70.5796 63.0375 70.5094 62.9061 70.481 62.763C70.4525 62.62 70.4671 62.4717 70.5229 62.337C70.5787 62.2023 70.6732 62.0871 70.7945 62.0061C70.9158 61.9251 71.0583 61.8818 71.2042 61.8818C71.3997 61.8818 71.5873 61.9595 71.7256 62.0978C71.8639 62.2361 71.9416 62.4236 71.9416 62.6192Z" fill="white" stroke="#263238" stroke-linecap="round" stroke-linejoin="round"/>
<path d="M86.8655 74.8665C86.8655 74.8665 89.7081 75.814 89.1403 79.1285C88.5725 82.4431 86.3899 82.4468 85.8221 82.3509C85.1556 82.1973 84.4973 82.0102 83.8496 81.7905C83.8496 81.7905 85.2728 79.9913 84.6091 78.0004C83.9455 76.0094 84.0229 74.6748 86.8655 74.8665Z" fill="white" stroke="#263238" stroke-linecap="round" stroke-linejoin="round"/>
<path d="M72.7453 79.9844C73.0338 81.1496 73.6597 82.2038 74.5445 83.0151C75.9676 84.2502 78.6185 84.4382 78.6185 84.4382C78.1498 85.6657 77.4041 86.7684 76.4396 87.6606C74.9242 88.9879 73.2172 90.8829 72.7526 92.1143C72.2881 93.3458 73.1213 92.9697 73.7002 92.2102C74.279 91.4507 75.0275 90.2193 75.0275 90.2193C75.0275 90.2193 74.268 92.778 75.0275 92.3061C75.787 91.8341 76.2589 89.8395 76.2589 89.8395C76.2589 89.8395 76.2589 92.3061 76.8267 91.7383C77.3945 91.1705 77.3023 89.3676 77.3023 89.0837C77.3023 88.7998 78.342 88.5122 78.9135 87.9445C79.4849 87.3767 77.1106 87.9445 77.1106 87.9445C77.1106 87.9445 80.5247 85.5775 81.0924 84.7221C81.6602 83.8667 80.2371 82.3514 79.861 81.8795C79.4849 81.4076 72.7453 79.9844 72.7453 79.9844Z" fill="#CFCFCF" stroke="#263238" stroke-linecap="round" stroke-linejoin="round"/>
<path d="M78.6185 84.4385C78.1498 85.666 77.4041 86.7687 76.4396 87.6609C74.9242 88.9881 73.2172 90.8832 72.7526 92.1146C72.2881 93.3461 73.1213 92.97 73.7002 92.2105C74.279 91.451 75.0275 90.2196 75.0275 90.2196C75.0275 90.2196 74.268 92.7783 75.0275 92.3063C75.787 91.8344 76.2589 89.8398 76.2589 89.8398C76.2589 89.8398 76.2589 92.3064 76.8267 91.7386C77.3945 91.1708 77.3023 89.3679 77.3023 89.084C77.3023 88.8001 78.342 88.5125 78.9135 87.9447C79.4849 87.377 77.1106 87.9447 77.1106 87.9447C77.1106 87.9447 80.5247 85.5778 81.0924 84.7224C81.3284 84.3537 81.2178 83.8928 80.9818 83.4283C79.5255 83.0559 78.6185 84.4385 78.6185 84.4385Z" fill="white" stroke="#263238" stroke-linecap="round" stroke-linejoin="round"/>
<path d="M72.3803 76.5406C72.6711 77.7058 73.298 78.7597 74.1832 79.5713C75.6026 80.8027 78.2572 80.9944 78.2572 80.9944C77.7868 82.221 77.0414 83.3234 76.0782 84.2168C74.5629 85.5441 72.8559 87.4391 72.3913 88.6706C71.9268 89.902 72.76 89.5259 73.3389 88.7664C73.9177 88.0069 74.6661 86.7755 74.6661 86.7755C74.6661 86.7755 73.9103 89.3342 74.6661 88.8623C75.422 88.3903 75.8976 86.3957 75.8976 86.3957C75.8976 86.3957 75.8976 88.8623 76.469 88.2908C77.0405 87.7193 76.941 85.9238 76.941 85.6399C76.941 85.356 77.9844 85.0685 78.5521 84.5007C79.1199 83.9329 76.7529 84.5007 76.7529 84.5007C76.7529 84.5007 80.1633 82.13 80.7348 81.2783C81.3063 80.4266 79.8794 78.9076 79.4997 78.4357C79.1199 77.9638 72.3803 76.5406 72.3803 76.5406Z" fill="white" stroke="#263238" stroke-linecap="round" stroke-linejoin="round"/>
<path d="M78.2572 80.9947C77.7868 82.2213 77.0414 83.3237 76.0782 84.2171C74.5629 85.5443 72.8559 87.4394 72.3913 88.6708C71.9268 89.9023 72.76 89.5262 73.3389 88.7667C73.9177 88.0072 74.6661 86.7758 74.6661 86.7758C74.6661 86.7758 73.9103 89.3345 74.6661 88.8626C75.422 88.3906 75.8976 86.396 75.8976 86.396C75.8976 86.396 75.8976 88.8626 76.469 88.2911C77.0405 87.7196 76.941 85.9241 76.941 85.6402C76.941 85.3563 77.9844 85.0687 78.5521 84.501C79.1199 83.9332 76.7529 84.501 76.7529 84.501C76.7529 84.501 80.1633 82.1303 80.7348 81.2786C80.9708 80.9099 80.8602 80.4491 80.6205 79.9845C79.1605 79.6121 78.2572 80.9947 78.2572 80.9947Z" fill="white" stroke="#263238" stroke-linecap="round" stroke-linejoin="round"/>
<path d="M73.0358 64.8318C73.0358 64.8318 70.0862 62.6197 67.8741 64.9535C65.6619 67.2873 66.8897 72.4526 68.3644 74.5394C69.8392 76.6262 76.966 79.0891 81.2686 78.7204C85.5713 78.3517 88.7641 73.6804 88.7641 71.2212C88.7641 68.7621 86.6773 67.044 85.0772 66.9223C83.4771 66.8006 80.4096 66.3066 80.4096 66.3066C80.4096 66.3066 74.3852 65.9379 73.0358 64.8318Z" fill="#CFCFCF" stroke="#263238" stroke-linecap="round" stroke-linejoin="round"/>
<path d="M84.22 60.7244C84.22 60.7244 84.7472 59.74 84.1831 57.9666C83.619 56.1932 82.4097 56.1231 82.4097 56.5951V57.3324C82.4097 57.3324 81.2041 56.042 80.8797 56.2854C80.5552 56.5287 80.7985 57.8965 80.7985 57.8965C80.7985 57.8965 83.3536 58.4864 84.22 60.7244Z" fill="#263238" stroke="#263238" stroke-linecap="round" stroke-linejoin="round"/>
<path d="M84.2196 60.7249C84.2196 60.7249 83.4122 58.2952 81.3291 57.7164C79.246 57.1376 76.9343 58.0851 76.1232 58.9921C75.0407 60.3591 74.0375 61.7871 73.1183 63.2689C72.3072 64.5408 68.1447 66.5097 68.9558 67.2028C69.7669 67.8959 71.9607 66.8562 71.9607 66.8562C71.9607 66.8562 70.4564 69.1679 72.3072 68.8213C74.1581 68.4748 74.276 67.6637 74.276 67.6637C74.276 67.6637 73.8115 70.5579 75.0835 70.0933C76.3555 69.6288 76.2412 68.5891 76.2412 68.5891C76.2412 68.5891 75.6623 71.251 76.9343 71.251C78.2063 71.251 78.4386 69.4076 78.4386 69.4076C78.4386 69.4076 78.7851 71.8372 80.282 71.487C81.7789 71.1367 80.9752 69.7541 80.9752 69.7541C80.9752 69.7541 82.8186 71.3727 83.1873 70.4473C83.556 69.5219 82.4942 67.789 82.4942 67.789C82.4942 67.789 81.2222 65.0128 82.3762 63.8551C83.5302 62.6974 85.9636 62.0116 85.9636 62.0116L84.2196 60.7249Z" fill="#878787" stroke="#263238" stroke-linecap="round" stroke-linejoin="round"/>
<path d="M83.5078 62.6889C83.5852 62.7589 83.6626 62.8216 83.74 62.8843C84.4491 62.5219 85.1895 62.2245 85.9522 61.9957L84.2193 60.7238C84.2193 60.7238 82.2358 61.5349 83.5078 62.6889Z" fill="#92E3A9" stroke="#263238" stroke-linecap="round" stroke-linejoin="round"/>
<path d="M82.15 60.1819C82.1508 60.2704 82.1251 60.3572 82.0764 60.4311C82.0276 60.505 81.958 60.5628 81.8763 60.597C81.7947 60.6312 81.7047 60.6403 81.6178 60.6232C81.5309 60.6061 81.4511 60.5636 81.3885 60.501C81.3259 60.4384 81.2833 60.3585 81.2662 60.2717C81.2491 60.1848 81.2583 60.0948 81.2925 60.0131C81.3267 59.9314 81.3844 59.8618 81.4584 59.8131C81.5323 59.7643 81.6191 59.7387 81.7076 59.7394C81.8249 59.7394 81.9375 59.786 82.0204 59.869C82.1034 59.952 82.15 60.0645 82.15 60.1819Z" fill="white" stroke="#263238" stroke-linecap="round" stroke-linejoin="round"/>
<path d="M86.2028 76.9504C86.2028 76.9504 83.928 77.8979 82.6007 76.8545C81.2734 75.8111 79.2825 74.2036 77.4833 74.2036C75.6841 74.2036 75.4924 75.7189 76.344 76.2867C77.1957 76.8545 79.1903 78.3735 79.1903 78.3735C79.1903 78.3735 76.5358 78.4657 75.0204 77.2343C73.5051 76.0028 72.4396 73.8239 71.4183 73.916C70.397 74.0082 71.5105 76.0987 71.5105 76.0987C71.5105 76.0987 69.9952 74.3917 69.4274 75.0553C68.8596 75.7189 70.4708 77.8979 71.2266 79.0371C71.9824 80.1764 76.156 81.7913 77.2953 82.16C77.8126 82.357 78.3549 82.4811 78.9064 82.5286C78.9064 82.5286 82.7924 81.9756 83.8506 81.7913C84.9087 81.6069 85.9374 81.3193 86.3171 79.8003C86.6969 78.2813 86.4867 77.2343 86.2028 76.9504Z" fill="white" stroke="#263238" stroke-linecap="round" stroke-linejoin="round"/>
<path d="M71.5098 76.0983C71.5098 76.0983 72.8371 78.9409 74.9238 80.0765L71.5098 76.0983Z" fill="white"/>
<path d="M71.5098 76.0983C71.5098 76.0983 72.8371 78.9409 74.9238 80.0765" stroke="#263238" stroke-linecap="round" stroke-linejoin="round"/>
<path d="M43.6632 70.2692L23.293 69.3474L24.1225 79.2099H24.2258C24.8157 81.4479 28.6206 83.3171 33.314 83.5346C35.4413 83.6342 37.7788 83.4941 39.8067 82.7198C41.9193 81.9161 42.6788 79.892 42.9553 77.8089C43.0696 76.972 43.4899 70.2618 43.6632 70.2692Z" fill="#878787" stroke="#263238" stroke-linecap="round" stroke-linejoin="round"/>
<path d="M34.6745 73.8017C34.2148 73.8017 33.7503 73.7907 33.2808 73.7685C30.7622 73.692 28.2723 73.2102 25.907 72.3417C23.0828 71.2098 22.5408 69.8899 22.5888 68.9793C22.6367 68.0686 23.293 66.8077 26.213 65.9376C28.6522 65.2925 31.1792 65.0435 33.6974 65.2002C36.216 65.2767 38.7059 65.7585 41.0712 66.627C43.8954 67.7589 44.4374 69.0788 44.3895 69.9895C44.3452 70.8964 43.6853 72.1611 40.7652 73.0312C38.7809 73.5713 36.7307 73.8307 34.6745 73.8017ZM32.2743 66.6454C30.3627 66.6147 28.4563 66.853 26.6112 67.3533C24.7456 67.9064 24.0598 68.6106 24.0303 69.0493C24.0008 69.4881 24.6276 70.2512 26.4305 70.9739C28.6477 71.7823 30.9807 72.2279 33.3398 72.2938C35.6959 72.4457 38.0611 72.2179 40.3449 71.6191C42.2105 71.066 42.8963 70.3618 42.9258 69.9231C42.9479 69.488 42.3285 68.7212 40.5256 67.9985C38.3063 67.1881 35.9707 66.7412 33.6089 66.6749C33.1591 66.6749 32.713 66.6454 32.2743 66.6454Z" fill="#878787" stroke="#263238" stroke-linecap="round" stroke-linejoin="round"/>
<mask id="mask3_339_160" style="mask-type:luminance" maskUnits="userSpaceOnUse" x="24" y="60" width="19" height="13">
<path d="M37.8964 61.4755C34.6335 60.598 30.235 60.6054 28.233 61.3022C26.9611 61.773 25.8145 62.5299 24.8816 63.5144L24.2917 68.6244C24.1995 68.7353 24.1429 68.8716 24.1295 69.0152C24.1074 69.4503 24.7194 70.2061 26.5075 70.925C28.6996 71.7269 31.0063 72.1713 33.3394 72.2413C35.6709 72.3895 38.011 72.1629 40.2708 71.5702C42.1142 71.0209 42.7963 70.3241 42.8184 69.8927L42.8885 64.7826C42.1216 64.661 41.0819 62.3345 37.8964 61.4755Z" fill="white"/>
</mask>
<g mask="url(#mask3_339_160)">
<path d="M43.5619 69.9322C43.6521 67.9917 39.2121 66.209 33.645 65.9504C28.0778 65.6917 23.4917 67.0551 23.4015 68.9955C23.3114 70.936 27.7513 72.7187 33.3185 72.9774C38.8856 73.236 43.4718 71.8726 43.5619 69.9322Z" fill="white" stroke="#263238" stroke-linecap="round" stroke-linejoin="round"/>
<path d="M34.6846 69.7865C33.5785 70.7525 31.9894 70.7414 31.123 69.757C30.2566 68.7726 30.4483 67.1762 31.547 66.2213C32.6457 65.2664 35.6026 64.0681 36.469 65.0525C37.3355 66.0369 35.7833 68.8168 34.6846 69.7865Z" fill="white" stroke="#263238" stroke-miterlimit="10"/>
<path d="M32.6023 68.0387C32.6023 69.5135 31.5404 70.6896 30.2279 70.6896C28.9153 70.6896 27.8535 69.5024 27.8535 68.0387C27.8535 66.575 28.919 63.5702 30.2279 63.5702C31.5367 63.5702 32.6023 66.5714 32.6023 68.0387Z" fill="white" stroke="#263238" stroke-miterlimit="10"/>
<path d="M39.5515 69.5907C39.5515 71.0655 38.486 72.2453 37.1771 72.2453C35.8683 72.2453 34.8027 71.0544 34.8027 69.5907C34.8027 68.127 35.8646 65.1222 37.1771 65.1222C38.4896 65.1222 39.5515 68.1233 39.5515 69.5907Z" fill="white" stroke="#263238" stroke-miterlimit="10"/>
<path d="M36.448 71.5083C36.448 72.983 35.3824 74.1628 34.0736 74.1628C32.7647 74.1628 31.6992 72.972 31.6992 71.5083C31.6992 70.0446 32.761 67.0434 34.0773 67.0434C35.3935 67.0434 36.448 70.0409 36.448 71.5083Z" fill="white" stroke="#263238" stroke-miterlimit="10"/>
<path d="M29.1394 69.8641C29.1394 71.3389 28.0775 72.5187 26.765 72.5187C25.4525 72.5187 24.3906 71.3315 24.3906 69.8641C24.3906 68.3967 25.4525 65.3956 26.765 65.3956C28.0775 65.3956 29.1394 68.4004 29.1394 69.8641Z" fill="white" stroke="#263238" stroke-miterlimit="10"/>
<path d="M42.2917 69.8641C42.2917 71.3389 41.2262 72.5187 39.9173 72.5187C38.6085 72.5187 37.543 71.3315 37.543 69.8641C37.543 68.3967 38.6048 65.3956 39.9173 65.3956C41.2299 65.3956 42.2917 68.4004 42.2917 69.8641Z" fill="white" stroke="#263238" stroke-miterlimit="10"/>
<path d="M31.5802 72.8914C30.4742 73.8611 28.8851 73.8463 28.0187 72.8619C27.1523 71.8775 27.3403 70.2811 28.4427 69.3262C29.5451 68.3713 32.4983 67.173 33.3647 68.1574C34.2311 69.1418 32.6789 71.9218 31.5802 72.8914Z" fill="white" stroke="#263238" stroke-miterlimit="10"/>
<path d="M40.6352 70.1139C41.6527 71.1684 41.7117 72.7648 40.7679 73.6718C39.824 74.5788 38.2313 74.4645 37.2174 73.41C36.2035 72.3556 34.8799 69.454 35.8274 68.5433C36.775 67.6326 39.6065 69.0595 40.6352 70.1139Z" fill="white" stroke="#263238" stroke-miterlimit="10"/>
</g>
<path d="M43.4831 70.3363C43.2985 70.3371 43.1204 70.2685 42.9839 70.1443C42.8473 70.0201 42.7624 69.8491 42.7458 69.6653L42.3365 62.3689C42.2187 61.0271 41.7706 59.7353 41.032 58.6088C40.2935 57.4823 39.2875 56.5562 38.1039 55.9132L37.3039 55.4781C36.1549 54.851 34.8723 54.5087 33.5637 54.4798C32.255 54.4508 30.9586 54.7362 29.783 55.3118C28.6075 55.8875 27.5871 56.7367 26.8076 57.7883C26.0281 58.8398 25.5121 60.0629 25.303 61.355L24.1084 68.7288C24.0665 68.9114 23.9567 69.0712 23.8012 69.1757C23.6458 69.2802 23.4564 69.3217 23.2715 69.2917C23.0866 69.2616 22.9201 69.1623 22.8057 69.014C22.6914 68.8656 22.6377 68.6793 22.6558 68.4929L23.8503 61.1191C24.0968 59.5941 24.7055 58.1505 25.6252 56.9094C26.5449 55.6683 27.7488 54.6658 29.136 53.9862C30.5232 53.3065 32.0531 52.9694 33.5975 53.0032C35.1419 53.0369 36.6556 53.4406 38.0118 54.1803L38.8118 54.6191C40.2103 55.3798 41.3987 56.4748 42.271 57.8065C43.1434 59.1381 43.6725 60.665 43.8113 62.2509L44.2168 69.5473C44.2342 69.7419 44.1738 69.9354 44.0486 70.0854C43.9235 70.2354 43.744 70.3296 43.5495 70.3474L43.4831 70.3363Z" fill="#878787" stroke="#263238" stroke-linecap="round" stroke-linejoin="round"/>
<path d="M26.7031 83.8816C26.7031 83.8816 27.0239 83.9295 28.8673 84.1765C30.7108 84.4235 33.6603 83.3801 34.0769 81.9128C34.2945 81.1754 32.7239 81.1754 31.6178 81.6694C30.5117 82.1635 26.7031 83.8816 26.7031 83.8816Z" fill="white" stroke="#263238" stroke-linecap="round" stroke-linejoin="round"/>
<path d="M22.526 74.4172C22.526 74.4172 24.6128 73.5581 26.5816 74.6642C27.917 75.4578 29.1545 76.4057 30.2685 77.4884C30.2685 77.4884 30.8806 78.2257 29.6528 78.9631C28.4251 79.7005 28.178 79.2101 27.1936 78.4728C26.4969 78.0014 25.6959 77.7066 24.8598 77.6137C24.8598 77.6137 27.319 79.9475 28.178 80.6849C29.0371 81.4223 31.4963 80.0692 32.2337 81.0536C32.971 82.038 32.6023 82.4067 30.5119 83.0187C28.4214 83.6307 26.4563 84.7405 24.7382 83.6344C23.0201 82.5284 18.9608 77.9824 18.4704 76.5076C17.98 75.0329 20.8042 73.4328 22.526 74.4172Z" fill="white" stroke="#263238" stroke-linecap="round" stroke-linejoin="round"/>
</svg>
